<?xml version="1.0" encoding="UTF-8"?>
<svg version="1.1" xmlns="http://www.w3.org/2000/svg" width="204" height="192">
<path d="M0 0 C67.32 0 134.64 0 204 0 C204 63.36 204 126.72 204 192 C136.68 192 69.36 192 0 192 C0 128.64 0 65.28 0 0 Z " fill="#FEFEFD" transform="translate(0,0)"/>
<path d="M0 0 C3.30247633 3.18368221 3.37163172 5.33325925 3.51464844 9.85742188 C3.65547829 20.17640957 1.83655161 28.49377582 -1.828125 38.09375 C-2.32892578 39.49560547 -2.32892578 39.49560547 -2.83984375 40.92578125 C-7.04908176 52.20369744 -13.53523039 61.82259479 -20.62158203 71.44189453 C-21.69762278 72.91508184 -22.7472084 74.40750937 -23.79296875 75.90234375 C-35.48617388 92.53982167 -50.06603322 106.56583929 -64.49072266 120.78808594 C-65.26206543 121.54895508 -66.0334082 122.30982422 -66.828125 123.09375 C-67.41440674 123.64272949 -68.00068848 124.19170898 -68.60473633 124.75732422 C-70.47765398 126.80329333 -70.52280548 128.74759976 -70.890625 131.46875 C-71.12458984 133.18384766 -71.12458984 133.18384766 -71.36328125 134.93359375 C-72.06001776 140.85953663 -72.57392523 146.80946266 -73.04321289 152.75732422 C-73.71063064 160.60076484 -74.91877533 165.62334192 -80.515625 171.46875 C-81.40765625 172.41621094 -82.2996875 173.36367187 -83.21875 174.33984375 C-84.07984375 175.24863281 -84.9409375 176.15742188 -85.828125 177.09375 C-87.1497995 178.56472477 -88.46361512 180.04284127 -89.765625 181.53125 C-90.29027344 182.12808594 -90.81492187 182.72492188 -91.35546875 183.33984375 C-92.90535737 185.10064551 -92.90535737 185.10064551 -94.1953125 187.30078125 C-95.828125 189.09375 -95.828125 189.09375 -98.30859375 189.484375 C-99.20191406 189.43796875 -100.09523438 189.3915625 -101.015625 189.34375 C-101.91667969 189.30765625 -102.81773438 189.2715625 -103.74609375 189.234375 C-104.43316406 189.18796875 -105.12023437 189.1415625 -105.828125 189.09375 C-109.20146774 183.04826498 -112.57794967 176.98718589 -115.390625 170.65625 C-115.72191406 169.91503906 -116.05320312 169.17382812 -116.39453125 168.41015625 C-117.57902 162.08221184 -112.39759566 154.78883221 -109.703125 149.21875 C-109.23519531 148.24421875 -108.76726562 147.2696875 -108.28515625 146.265625 C-107.13597655 143.87345501 -105.98355257 141.48290684 -104.828125 139.09375 C-107.84357744 140.80753213 -109.94000858 142.21402484 -112.328125 144.78125 C-114.828125 147.09375 -114.828125 147.09375 -117.265625 147.59375 C-119.828125 147.09375 -119.828125 147.09375 -122.890625 145.46875 C-125.61902159 143.77612 -125.61902159 143.77612 -127.71875 144.74609375 C-130.25264855 146.36497338 -132.31946527 148.22654983 -134.515625 150.28125 C-137.83731354 153.30898381 -141.16360686 156.30718831 -144.640625 159.15625 C-145.67123047 160.00896484 -145.67123047 160.00896484 -146.72265625 160.87890625 C-149.32667838 162.38141253 -150.8654422 162.48749391 -153.828125 162.09375 C-156.62229455 159.87111513 -158.42941026 158.14281278 -159.70703125 154.78125 C-159.88059637 150.92922412 -158.32509035 149.30256457 -156.015625 146.28125 C-155.28730469 145.30542969 -154.55898437 144.32960937 -153.80859375 143.32421875 C-153.15503906 142.58816406 -152.50148437 141.85210937 -151.828125 141.09375 C-151.168125 141.09375 -150.508125 141.09375 -149.828125 141.09375 C-149.621875 140.5575 -149.415625 140.02125 -149.203125 139.46875 C-147.85326388 137.1371717 -146.62031752 135.93383934 -144.640625 134.15625 C-143.03652167 132.65835621 -143.03652167 132.65835621 -141.828125 131.09375 C-141.76966691 128.62724802 -141.76966691 128.62724802 -142.828125 126.09375 C-144.27778987 121.06256014 -144.27778987 121.06256014 -143.828125 118.09375 C-141.52133621 114.41861604 -138.78951856 111.25602584 -135.828125 108.09375 C-136.776875 108.67125 -137.725625 109.24875 -138.703125 109.84375 C-141.60799386 111.51536468 -144.50510028 112.78983233 -147.640625 113.96875 C-152.33758691 115.74887711 -156.28554965 118.1640795 -160.40625 121.01953125 C-163.72085587 122.48971934 -165.36003755 122.10366394 -168.828125 121.09375 C-171.30981224 119.82417681 -173.64589681 118.54037169 -176.015625 117.09375 C-180.74075307 114.22650094 -180.74075307 114.22650094 -185.828125 112.09375 C-187.24258662 110.04278065 -187.88592917 108.78139805 -187.67529297 106.27563477 C-186.45159362 103.1239918 -184.42808703 101.35864356 -182.0234375 98.99609375 C-181.54365448 98.52055557 -181.06387146 98.0450174 -180.56954956 97.55506897 C-179.03765652 96.03992397 -177.49567464 94.5355367 -175.953125 93.03125 C-174.92248968 92.01567108 -173.89253391 90.99940205 -172.86328125 89.98242188 C-170.97044831 88.1140548 -169.07308918 86.25076357 -167.17236328 84.39038086 C-164.91030795 82.25076158 -164.91030795 82.25076158 -163.38378906 80.36352539 C-161.05492273 78.46264125 -158.81244255 78.29123092 -155.8671875 77.8125 C-154.67222656 77.61011719 -153.47726563 77.40773438 -152.24609375 77.19921875 C-150.99441406 76.99941406 -149.74273437 76.79960938 -148.453125 76.59375 C-130.3661813 75.02867214 -130.3661813 75.02867214 -115.828125 66.21875 C-114.94537796 65.14430308 -114.0553705 64.0758005 -113.16015625 63.01171875 C-112.65564941 62.40376465 -112.15114258 61.79581055 -111.63134766 61.16943359 C-100.65648876 48.53631007 -88.34918464 36.93950914 -74.828125 27.09375 C-73.79429688 26.2996875 -72.76046875 25.505625 -71.6953125 24.6875 C-56.95602355 13.37858265 -19.90916835 -13.41943944 0 0 Z " fill="#6A96A5" transform="translate(193.828125,2.90625)"/>
<path d="M0 0 C5.61 0 11.22 0 17 0 C17 63.36 17 126.72 17 192 C-17.98 192 -52.96 192 -89 192 C-86.96260868 188.6043478 -85.59720019 186.3473569 -83.00390625 183.625 C-82.44509766 183.03203125 -81.88628906 182.4390625 -81.31054688 181.828125 C-80.73369141 181.22484375 -80.15683594 180.6215625 -79.5625 180 C-71.64264052 172.37312194 -71.64264052 172.37312194 -67.875 162.4375 C-67.72804688 161.30828125 -67.58109375 160.1790625 -67.4296875 159.015625 C-67.09565297 156.00777488 -66.79993738 152.99655762 -66.5078125 149.984375 C-66.42289551 149.10982666 -66.33797852 148.23527832 -66.25048828 147.33422852 C-66.08720138 145.60889393 -65.93155243 143.88281419 -65.78466797 142.15600586 C-65.56829194 139.76326739 -65.29278324 137.38445514 -65 135 C-64.9484375 134.31760254 -64.896875 133.63520508 -64.84375 132.93212891 C-63.98301126 126.88753134 -60.31193208 124.1325905 -55.78564453 120.33886719 C-51.24903023 116.52986061 -47.12160229 112.31314334 -42.9375 108.125 C-42.06206543 107.24875977 -41.18663086 106.37251953 -40.28466797 105.46972656 C-34.45139968 99.58077857 -28.96556552 93.64801595 -24 87 C-23.50371094 86.35933594 -23.00742188 85.71867187 -22.49609375 85.05859375 C-20.96548219 83.06087457 -19.4806691 81.03504284 -18 79 C-17.24976563 77.98421875 -16.49953125 76.9684375 -15.7265625 75.921875 C-13.08908633 72.32344192 -10.52652546 68.6770485 -8 65 C-7.59813477 64.41863281 -7.19626953 63.83726563 -6.78222656 63.23828125 C2.55495586 49.49123021 9.07971744 32.77280835 9.375 16.0625 C9.41238281 15.26392578 9.44976562 14.46535156 9.48828125 13.64257812 C9.5523744 9.34477646 9.43593727 7.56402193 6.7265625 4.05859375 C3.91444038 1.80552491 3.91444038 1.80552491 0 0 Z " fill="#FEFEFE" transform="translate(187,0)"/>
<path d="M0 0 C0.07476562 0.58265625 0.14953125 1.1653125 0.2265625 1.765625 C2.34868215 14.99766515 9.15712918 25.87346757 19.6953125 34.10546875 C22.0953 35.80225291 24.51958741 37.42399778 27 39 C28.485 39.99 28.485 39.99 30 41 C25.16207434 54.93119955 11.47967623 67.56490837 1.578125 78.17578125 C-0.20715464 80.13147395 -1.90399351 82.07815222 -3.57421875 84.125 C-5.6305303 86.56210999 -7.64471658 88.62541434 -10.0625 90.6875 C-11.03896484 91.52861328 -11.03896484 91.52861328 -12.03515625 92.38671875 C-12.68355469 92.91910156 -13.33195312 93.45148438 -14 94 C-14.63808594 94.60457031 -15.27617188 95.20914063 -15.93359375 95.83203125 C-18 97 -18 97 -20.3515625 96.4765625 C-23.56312398 94.68604592 -26.48176379 92.63108074 -29.375 90.375 C-29.95008301 89.92697021 -30.52516602 89.47894043 -31.11767578 89.01733398 C-42.49585353 79.96790067 -50.47321909 68.18296841 -54 54 C-54.28061279 52.90365234 -54.56122559 51.80730469 -54.8503418 50.67773438 C-55 47 -55 47 -53.04077148 44.08496094 C-52.0883782 43.11388585 -51.11340072 42.16462587 -50.12109375 41.234375 C-49.60246765 40.71872986 -49.08384155 40.20308472 -48.54949951 39.67181396 C-46.86519794 38.00956954 -45.1534064 36.37954801 -43.4375 34.75 C-42.27361471 33.61874397 -41.11061032 32.48658093 -39.94848633 31.35351562 C-32.3574557 24.00589881 -24.60642972 17.14903829 -16 11 C-14.8644479 10.14817116 -13.73169 9.29260643 -12.6015625 8.43359375 C-1.49851643 0 -1.49851643 0 0 0 Z " fill="#8DAEBE" transform="translate(135,19)"/>
<path d="M0 0 C3.30247633 3.18368221 3.37163172 5.33325925 3.51464844 9.85742188 C3.65547829 20.17640957 1.83655161 28.49377582 -1.828125 38.09375 C-2.16199219 39.02832031 -2.49585938 39.96289062 -2.83984375 40.92578125 C-5.41772208 47.83275483 -8.5698277 55.8354527 -13.828125 61.09375 C-19.66698642 61.71830483 -23.53010271 60.33779215 -28.578125 57.71875 C-29.27478271 57.36151855 -29.97144043 57.00428711 -30.68920898 56.63623047 C-43.38823334 49.82811397 -53.24170935 39.05074683 -58.1640625 25.41796875 C-59.11780613 22.07986605 -59.44531379 19.52257662 -58.828125 16.09375 C-47.82754413 5.51035682 -14.77634367 -9.95974545 0 0 Z " fill="#D73E22" transform="translate(193.828125,2.90625)"/>
<path d="M0 0 C4.12480903 7.95498884 4.12480903 7.95498884 3.76953125 10.9296875 C2.81119845 13.50794327 1.50595904 14.7588004 -0.5 16.625 C-3.11806646 19.03610916 -3.11806646 19.03610916 -5 22 C-5.66 22 -6.32 22 -7 22 C-7.226875 22.515625 -7.45375 23.03125 -7.6875 23.5625 C-8.87291697 25.76398865 -10.15010185 27.48158791 -11.6875 29.4375 C-13.43458774 31.85654456 -13.99145172 32.6324241 -14.0625 35.6875 C-12.7504107 38.54322376 -11.52047888 40.10964084 -9 42 C-6.67405034 42.56526809 -6.67405034 42.56526809 -4 42 C-1.71250556 40.38030163 0.2537189 38.80727128 2.3125 36.9375 C2.88500488 36.44032471 3.45750977 35.94314941 4.04736328 35.4309082 C6.56722039 33.23287874 9.00406883 30.99596458 11.37890625 28.640625 C13.19599859 26.86264815 14.81187206 25.29452161 17 24 C20.6875 24.4375 20.6875 24.4375 24 26 C24.969375 26.37125 25.93875 26.7425 26.9375 27.125 C27.618125 27.41375 28.29875 27.7025 29 28 C28.56269422 36.3088098 22.96588712 43.8795909 17.03515625 49.40625 C8.80567735 55.85083232 -1.43039336 60.34095505 -12 60 C-12 57 -12 57 -10 54 C-10.6084375 54.2165625 -11.216875 54.433125 -11.84375 54.65625 C-20.32274949 57.34957925 -28.21559631 57.29758959 -37 57 C-36.44647681 53.82135199 -35.7293137 51.14340856 -34.3125 48.25 C-32.24653853 43.78123553 -30.65465351 39.21383742 -29.0625 34.5625 C-24.65210047 21.94146812 -19.23642814 8.82888223 -6.5625 2.375 C-4.39219667 1.53733907 -2.20696695 0.73565565 0 0 Z " fill="#F6D74D" transform="translate(49,122)"/>
<path d="M0 0 C-0.30566432 4.33560707 -0.64467311 8.66821643 -1 13 C-1.06977051 13.85142578 -1.13954102 14.70285156 -1.21142578 15.58007812 C-1.44463638 18.36672199 -1.68976991 21.1521121 -1.9375 23.9375 C-2.01210449 24.83686279 -2.08670898 25.73622559 -2.16357422 26.6628418 C-2.87813302 34.4871876 -4.10329517 39.54279832 -9.6875 45.375 C-10.57953125 46.32246094 -11.4715625 47.26992187 -12.390625 48.24609375 C-13.25171875 49.15488281 -14.1128125 50.06367188 -15 51 C-16.3216745 52.47097477 -17.63549012 53.94909127 -18.9375 55.4375 C-19.46214844 56.03433594 -19.98679687 56.63117188 -20.52734375 57.24609375 C-22.07723237 59.00689551 -22.07723237 59.00689551 -23.3671875 61.20703125 C-25 63 -25 63 -27.48046875 63.390625 C-28.37378906 63.34421875 -29.26710938 63.2978125 -30.1875 63.25 C-31.08855469 63.21390625 -31.98960938 63.1778125 -32.91796875 63.140625 C-33.60503906 63.09421875 -34.29210937 63.0478125 -35 63 C-38.37334274 56.95451498 -41.74982467 50.89343589 -44.5625 44.5625 C-44.89378906 43.82128906 -45.22507812 43.08007812 -45.56640625 42.31640625 C-46.19243372 38.97195321 -45.28440939 37.16723679 -44 34 C-43.68216553 33.19812256 -43.36433105 32.39624512 -43.03686523 31.57006836 C-41.89071583 28.74996763 -40.67080689 25.97049205 -39.4375 23.1875 C-39.04498047 22.22134766 -38.65246094 21.25519531 -38.24804688 20.25976562 C-37.02312805 17.54048404 -35.91882913 15.28628276 -34 13 C-30.92677145 11.87970157 -28.23067336 11.9438879 -25 12 C-23.3207762 11.36562656 -21.64991582 10.70710678 -20 10 C-18.68 10 -17.36 10 -16 10 C-16 9.34 -16 8.68 -16 8 C-15.12988281 7.63648438 -15.12988281 7.63648438 -14.2421875 7.265625 C-10.7212512 5.75499226 -3.45627284 0 0 0 Z " fill="#C92C31" transform="translate(123,129)"/>
<path d="M0 0 C-1.26685038 3.47323093 -2.74836832 6.21852498 -4.9375 9.1875 C-9.253484 15.5456813 -10.96972154 21.74021463 -11.25 29.375 C-11.45703125 31.875 -11.45703125 31.875 -12 34 C-14.57088773 36.07859008 -16.01114301 36.91314291 -19 38 C-20.60506114 38.62269931 -22.20917912 39.24783347 -23.8125 39.875 C-24.65941406 40.19597656 -25.50632813 40.51695313 -26.37890625 40.84765625 C-30.0556558 42.46411097 -33.28303676 44.6424399 -36.578125 46.92578125 C-39.89273087 48.39596934 -41.53191255 48.00991394 -45 47 C-47.48168724 45.73042681 -49.81777181 44.44662169 -52.1875 43 C-56.91262807 40.13275094 -56.91262807 40.13275094 -62 38 C-63.41446162 35.94903065 -64.05780417 34.68764805 -63.84716797 32.18188477 C-62.62346862 29.0302418 -60.59996203 27.26489356 -58.1953125 24.90234375 C-57.71552948 24.42680557 -57.23574646 23.9512674 -56.74142456 23.46131897 C-55.20953152 21.94617397 -53.66754964 20.4417867 -52.125 18.9375 C-51.09436468 17.92192108 -50.06440891 16.90565205 -49.03515625 15.88867188 C-47.14232331 14.0203048 -45.24496418 12.15701357 -43.34423828 10.29663086 C-41.08313186 8.15822503 -41.08313186 8.15822503 -39.56225586 6.27636719 C-37.21026077 4.35478095 -34.90226809 4.13922319 -31.93359375 3.61328125 C-30.72509766 3.39736328 -29.51660156 3.18144531 -28.27148438 2.95898438 C-27.00626953 2.74564453 -25.74105469 2.53230469 -24.4375 2.3125 C-23.19935547 2.08755859 -21.96121094 1.86261719 -20.68554688 1.63085938 C-13.72166709 0.41798672 -7.06926818 -0.34211107 0 0 Z " fill="#A02422" transform="translate(70,77)"/>
<path d="M0 0 C1.7634375 0.7115625 1.7634375 0.7115625 3.5625 1.4375 C7.40103259 2.88806847 10.92740191 3.57577103 15 4 C9.8874116 12.44762123 4.18016676 20.31275186 -2 28 C-3.22009766 29.53140625 -3.22009766 29.53140625 -4.46484375 31.09375 C-11.27853397 39.42629329 -18.83612736 47.01979788 -26.4375 54.625 C-26.96982239 55.1583194 -27.50214478 55.69163879 -28.05059814 56.24111938 C-29.59136904 57.78156388 -31.13643339 59.31753761 -32.68359375 60.8515625 C-34.03795532 62.19468506 -34.03795532 62.19468506 -35.41967773 63.56494141 C-49.17673876 76.54752506 -49.17673876 76.54752506 -58 77 C-58 77.66 -58 78.32 -58 79 C-64.91801604 81.9349159 -71.50587348 82.8350908 -79 82 C-81.35546875 80.98046875 -81.35546875 80.98046875 -83 80 C-80.42564334 77.19733648 -77.71723177 75.86651311 -74.296875 74.21875 C-69.92161426 71.89718308 -65.99861771 68.90808561 -62 66 C-61.01773438 65.29875 -60.03546875 64.5975 -59.0234375 63.875 C-53.2304287 59.76918136 -53.2304287 59.76918136 -48 55 C-46.7176553 53.84374359 -45.42538004 52.6984351 -44.125 51.5625 C-43.06345703 50.634375 -43.06345703 50.634375 -41.98046875 49.6875 C-40.50584977 48.43101992 -38.98282849 47.2309191 -37.4375 46.0625 C-34.63760686 43.69335965 -32.37068452 41.09291667 -29.99609375 38.3046875 C-27.85100105 35.82796599 -25.61612142 33.45254521 -23.375 31.0625 C-19.05858647 26.32964841 -15.08495691 21.39491221 -11.1875 16.3125 C-10.37901611 15.26171265 -10.37901611 15.26171265 -9.55419922 14.18969727 C-6.08913273 9.61780919 -2.95507722 4.91634608 0 0 Z " fill="#437687" transform="translate(165,60)"/>
<path d="M0 0 C1 1 1 1 1.08984375 2.75 C0.62742265 9.57960391 -1.88853607 13.6550969 -6 19 C-6.62132812 19.84691406 -7.24265625 20.69382812 -7.8828125 21.56640625 C-11.34897678 26.20004427 -11.34897678 26.20004427 -13 28 C-13.66 28 -14.32 28 -15 28 C-15.3403125 28.804375 -15.3403125 28.804375 -15.6875 29.625 C-17.45570089 32.82460161 -19.53670203 35.29037223 -22 38 C-22.66 38 -23.32 38 -24 38 C-24.23589844 38.57105469 -24.47179687 39.14210937 -24.71484375 39.73046875 C-27.34865011 44.38165871 -31.97435391 47.5724499 -36 51 C-36.81984375 51.70640625 -37.6396875 52.4128125 -38.484375 53.140625 C-39.25265625 53.77484375 -40.0209375 54.4090625 -40.8125 55.0625 C-41.49957031 55.63097656 -42.18664063 56.19945312 -42.89453125 56.78515625 C-45.49855338 58.28766253 -47.0373172 58.39374391 -50 58 C-52.79416955 55.77736513 -54.60128526 54.04906278 -55.87890625 50.6875 C-56.05247137 46.83547412 -54.49696535 45.20881457 -52.1875 42.1875 C-51.45917969 41.21167969 -50.73085938 40.23585937 -49.98046875 39.23046875 C-49.32691406 38.49441406 -48.67335938 37.75835937 -48 37 C-47.34 37 -46.68 37 -46 37 C-45.75789795 36.43482666 -45.5157959 35.86965332 -45.26635742 35.28735352 C-42.60006719 30.47137642 -38.17966205 26.79893791 -34.3125 22.9375 C-33.84379486 22.467677 -33.37508972 21.997854 -32.8921814 21.51379395 C-10.8891665 -0.46336879 -10.8891665 -0.46336879 0 0 Z " fill="#A02725" transform="translate(90,107)"/>
<path d="M0 0 C5.28394267 2.94844001 8.91543295 7.80879886 10.8125 13.5 C11.35178623 19.86357748 10.36002091 24.14905708 6.8125 29.5 C5.30078125 31.23046875 5.30078125 31.23046875 3.8125 32.5 C3.1525 32.5 2.4925 32.5 1.8125 32.5 C1.8125 33.16 1.8125 33.82 1.8125 34.5 C-3.97061344 37.48483274 -9.68263954 37.19099599 -15.8125 35.5 C-20.63086098 32.64467497 -24.65875969 28.55748063 -27.1875 23.5 C-28.18070883 10.74108659 -28.18070883 10.74108659 -24.1875 5.5 C-16.97532659 -0.85572782 -9.34871258 -4.08107261 0 0 Z " fill="#D7DADB" transform="translate(138.1875,52.5)"/>
<path d="M0 0 C0.07734375 0.804375 0.07734375 0.804375 0.15625 1.625 C1.75713224 12.68564093 7.70519316 22.91063765 14 32 C13.28457031 32.37769531 12.56914063 32.75539062 11.83203125 33.14453125 C-0.41275155 39.9084669 -10.36148755 48.91318464 -20 59 C-22.55065854 55.85000639 -23.91860311 53.25499836 -24.34375 49.125 C-23.88210689 46.27120624 -22.66873416 45.26023032 -20.625 43.25 C-16.46527546 39.04925253 -16.3956214 35.88993561 -16.21484375 30.1484375 C-15.53834124 20.2346007 -10.85692549 12.71699893 -5 5 C-4.67 4.34 -4.34 3.68 -4 3 C-5.98 3 -7.96 3 -10 3 C-10 2.67 -10 2.34 -10 2 C-8.52112267 1.66538533 -7.04188942 1.33234333 -5.5625 1 C-4.32693359 0.7215625 -4.32693359 0.7215625 -3.06640625 0.4375 C-1 0 -1 0 0 0 Z " fill="#8EADBD" transform="translate(74,74)"/>
<path d="M0 0 C-0.30566432 4.33560707 -0.64467311 8.66821643 -1 13 C-1.06977051 13.85142578 -1.13954102 14.70285156 -1.21142578 15.58007812 C-1.44463638 18.36672199 -1.68976991 21.1521121 -1.9375 23.9375 C-2.01210449 24.83686279 -2.08670898 25.73622559 -2.16357422 26.6628418 C-2.87813302 34.4871876 -4.10329517 39.54279832 -9.6875 45.375 C-10.57953125 46.32246094 -11.4715625 47.26992187 -12.390625 48.24609375 C-13.25171875 49.15488281 -14.1128125 50.06367188 -15 51 C-16.3216745 52.47097477 -17.63549012 53.94909127 -18.9375 55.4375 C-19.46214844 56.03433594 -19.98679687 56.63117188 -20.52734375 57.24609375 C-22.07430221 59.01529263 -22.07430221 59.01529263 -23.4296875 61.20703125 C-25 63 -25 63 -27.04296875 63.390625 C-29.02864583 63.26041667 -31.01432292 63.13020833 -33 63 C-32.21654285 61.82780457 -31.42297164 60.66236332 -30.625 59.5 C-29.96371094 58.52546875 -29.96371094 58.52546875 -29.2890625 57.53125 C-28.86367187 57.0259375 -28.43828125 56.520625 -28 56 C-27.34 56 -26.68 56 -26 56 C-25.77183594 55.45214844 -25.54367188 54.90429688 -25.30859375 54.33984375 C-23.61596986 51.31333119 -21.44195926 49.08172191 -19.0625 46.5625 C-12.55859849 39.6754526 -10.50956533 34.94349696 -9.3125 25.6875 C-9.18294922 24.75615234 -9.05339844 23.82480469 -8.91992188 22.86523438 C-8.60322775 20.57799903 -8.29693518 18.2898699 -8 16 C-8.88300781 16.45890625 -9.76601562 16.9178125 -10.67578125 17.390625 C-11.88778174 18.01088408 -13.10004039 18.63063886 -14.3125 19.25 C-14.94897461 19.58080566 -15.58544922 19.91161133 -16.24121094 20.25244141 C-20.06731096 22.19423027 -23.54653276 23.42213368 -27.75 24.375 C-35.00600344 26.72538447 -37.85640194 34.08473618 -41.19921875 40.421875 C-41.80405257 41.61227064 -42.40614125 42.80409134 -43 44 C-44.625 42.375 -44.625 42.375 -46 40 C-45.47265625 37.42578125 -45.47265625 37.42578125 -44 34 C-43.68015137 33.19739746 -43.36030273 32.39479492 -43.03076172 31.56787109 C-41.88968831 28.74692638 -40.67034642 25.96945298 -39.4375 23.1875 C-39.04498047 22.22134766 -38.65246094 21.25519531 -38.24804688 20.25976562 C-37.02312805 17.54048404 -35.91882913 15.28628276 -34 13 C-30.92677145 11.87970157 -28.23067336 11.9438879 -25 12 C-23.3207762 11.36562656 -21.64991582 10.70710678 -20 10 C-18.68 10 -17.36 10 -16 10 C-16 9.34 -16 8.68 -16 8 C-15.12988281 7.63648438 -15.12988281 7.63648438 -14.2421875 7.265625 C-10.7212512 5.75499226 -3.45627284 0 0 0 Z " fill="#A02523" transform="translate(123,129)"/>
<path d="M0 0 C-0.56990652 3.59357719 -1.86382477 5.17249271 -4.5 7.625 C-7.11806646 10.03610916 -7.11806646 10.03610916 -9 13 C-9.66 13 -10.32 13 -11 13 C-11.226875 13.515625 -11.45375 14.03125 -11.6875 14.5625 C-12.87291697 16.76398865 -14.15010185 18.48158791 -15.6875 20.4375 C-17.43458774 22.85654456 -17.99145172 23.6324241 -18.0625 26.6875 C-16.7504107 29.54322376 -15.52047888 31.10964084 -13 33 C-10.67405034 33.56526809 -10.67405034 33.56526809 -8 33 C-5.71242036 31.38024131 -3.74513939 29.80877111 -1.6875 27.9375 C-1.1200708 27.43887451 -0.5526416 26.94024902 0.03198242 26.42651367 C1.16783358 25.42657081 2.29920131 24.42150958 3.42578125 23.41113281 C5.53414646 21.52119005 7.67410389 19.66832234 9.8125 17.8125 C10.87602326 16.87616097 11.93899806 15.93919507 13 15 C15.475 15.99 15.475 15.99 18 17 C14.55048061 27.45568612 8.31883536 36.16632434 -1.625 41.375 C-4.24410398 42.06423789 -5.54394909 42.14030935 -8 41 C-8.33 40.01 -8.66 39.02 -9 38 C-15.78875724 38.54887825 -22.34418557 39.56650195 -29 41 C-28.53128631 34.33898438 -27.22373827 29.11301082 -24.4375 23.0625 C-24.08034912 22.27979736 -23.72319824 21.49709473 -23.35522461 20.69067383 C-19.01912149 11.51723346 -14.10024321 4.47074818 -4.98046875 -0.35546875 C-3 -1 -3 -1 0 0 Z " fill="#FAEDB0" transform="translate(53,131)"/>
<path d="M0 0 C1.46875 0.98828125 1.46875 0.98828125 3 3 C3.36177534 5.83089204 3.52249615 8.35535302 3.5 11.1875 C3.49645508 11.98542969 3.49291016 12.78335937 3.48925781 13.60546875 C3.26041241 21.98983357 0.9683919 29.22401084 -2 37 C-2.33386719 37.93457031 -2.66773438 38.86914062 -3.01171875 39.83203125 C-5.58959708 46.73900483 -8.7417027 54.7417027 -14 60 C-19.59608536 60.54863582 -23.08953041 59.40512796 -28 57 C-27.67 55.68 -27.34 54.36 -27 53 C-26.34 53 -25.68 53 -25 53 C-25 52.01 -25 51.02 -25 50 C-24.34 50 -23.68 50 -23 50 C-22.89816406 49.26394531 -22.79632813 48.52789062 -22.69140625 47.76953125 C-21.92634772 44.70497476 -20.86855221 43.16399748 -18.9375 40.6875 C-10.10159104 28.4656997 -4.7378797 14.2136391 0 0 Z " fill="#A02422" transform="translate(194,4)"/>
<path d="M0 0 C1.60170546 3.50373069 2.64436303 6.15663112 2 10 C0.00779978 11.88783226 -1.83791127 13.37273446 -4.0625 14.9375 C-9.45696209 18.95384507 -14.53853968 23.14043247 -19.4375 27.75 C-20.05165771 28.32492188 -20.66581543 28.89984375 -21.29858398 29.4921875 C-24.65470295 32.66978485 -27.91067776 35.92188168 -31.10546875 39.26171875 C-31.77843994 39.9587793 -32.45141113 40.65583984 -33.14477539 41.37402344 C-34.44072653 42.72445853 -35.72315265 44.08803701 -36.98999023 45.46582031 C-38.59986715 47.14395191 -40.09141628 48.67108211 -42 50 C-44.9296875 49.91015625 -44.9296875 49.91015625 -47 49 C-47.52350343 45.41026221 -47.82524855 43.18036394 -45.69848633 40.13842773 C-45.12380615 39.51395752 -44.54912598 38.8894873 -43.95703125 38.24609375 C-43.31967041 37.54983887 -42.68230957 36.85358398 -42.02563477 36.13623047 C-38.80436307 32.73908363 -35.56252914 29.37099488 -32.25 26.0625 C-31.20066284 25.01437134 -31.20066284 25.01437134 -30.13012695 23.94506836 C-24.68492093 18.56363671 -19.03349702 13.71479857 -13 9 C-10.06719743 6.55599786 -7.13903016 4.10664655 -4.21484375 1.65234375 C-2 0 -2 0 0 0 Z " fill="#B2DFEC" transform="translate(136,26)"/>
<path d="M0 0 C-1.34155631 2.98932164 -2.81752877 5.05967051 -5.14526367 7.35644531 C-5.78320358 7.99100647 -6.42114349 8.62556763 -7.07841492 9.27935791 C-7.76796768 9.95545105 -8.45752045 10.63154419 -9.16796875 11.328125 C-9.88100662 12.0359613 -10.59404449 12.74379761 -11.32868958 13.4730835 C-13.61026194 15.73685772 -15.89838342 17.99385671 -18.1875 20.25 C-20.45793875 22.49266506 -22.72684929 24.73682159 -24.99275208 26.98406982 C-26.40129031 28.38052401 -27.81249126 29.77429967 -29.22685242 31.16485596 C-33.15974182 35.05845313 -36.88972603 39.06253759 -40.49194336 43.26461792 C-42.49825258 45.57335949 -44.63317972 47.73002978 -46.8125 49.875 C-47.56144531 50.61492187 -48.31039062 51.35484375 -49.08203125 52.1171875 C-49.71496094 52.73851562 -50.34789062 53.35984375 -51 54 C-51.66 54.66 -52.32 55.32 -53 56 C-55.18268133 53.73001142 -55.9769032 52.49658127 -56.125 49.3125 C-54.4830958 44.47800431 -51.53038583 40.6689922 -48 37 C-47.34 37 -46.68 37 -46 37 C-45.75789795 36.43482666 -45.5157959 35.86965332 -45.26635742 35.28735352 C-42.60006719 30.47137642 -38.17966205 26.79893791 -34.3125 22.9375 C-33.84379486 22.467677 -33.37508972 21.997854 -32.8921814 21.51379395 C-11.11124736 -0.24154886 -11.11124736 -0.24154886 0 0 Z " fill="#C92E32" transform="translate(90,107)"/>
<path d="M0 0 C3.65249551 1.86938747 5.735327 4.60299049 8 8 C8.52846714 13.39036483 7.73659509 18.30285917 5 23 C1.85023845 26.09313662 -0.59284675 26.43202124 -4.9375 26.4375 C-8.8814864 26.34142238 -10.66460095 26.19453145 -14.125 24.1875 C-18.1095303 19.53888132 -18.42645772 16.67996409 -18.32421875 10.734375 C-17.8772943 6.96513261 -16.51248224 4.79962306 -14 2 C-9.53938144 -0.97374571 -5.22909921 -0.74701417 0 0 Z " fill="#40555F" transform="translate(135,57)"/>
<path d="M0 0 C5.40931904 3.55876253 10.70460564 7.27438657 16 11 C12.19789619 15.07994986 8.1714469 18.1001225 3.5 21.125 C2.84902344 21.55425781 2.19804688 21.98351562 1.52734375 22.42578125 C-1.9353063 24.69923835 -5.42921874 26.89873257 -9 29 C-8.01 29.33 -7.02 29.66 -6 30 C-7.56353316 33.83776322 -9.83471431 36.34999338 -13 39 C-17.80797427 40.16950725 -21.89672721 37.28072731 -26 35 C-25.01 34.505 -25.01 34.505 -24 34 C-23.731875 33.443125 -23.46375 32.88625 -23.1875 32.3125 C-21.5277218 29.08030034 -19.44764748 26.69241223 -17 24 C-16.34 24 -15.68 24 -15 24 C-14.76023437 23.45859375 -14.52046875 22.9171875 -14.2734375 22.359375 C-12.6754643 19.398713 -10.69357322 16.90272181 -8.625 14.25 C-5.1343074 9.7072892 -2.31963801 5.24439898 0 0 Z " fill="#8CADBD" transform="translate(92,111)"/>
<path d="M0 0 C-1.12451727 2.9719385 -2.22293791 5.33440687 -4 8 C-5.90429688 8.58422852 -5.90429688 8.58422852 -8.21875 8.87890625 C-9.06397217 8.99379395 -9.90919434 9.10868164 -10.7800293 9.22705078 C-12.12641479 9.39309814 -12.12641479 9.39309814 -13.5 9.5625 C-15.32951174 9.8210162 -17.15894006 10.08012348 -18.98828125 10.33984375 C-21.73629539 10.71243006 -24.46993768 11.04602775 -27.23046875 11.31640625 C-34.70007276 12.25456001 -38.1049541 16.60564158 -43 22 C-44.29143273 23.1899449 -45.60325213 24.35826886 -46.9375 25.5 C-51.69730792 29.58670377 -56.34568293 33.79394707 -61 38 C-62.5625 36.25 -62.5625 36.25 -64 34 C-63.7475776 29.8137148 -61.06343287 27.72025013 -58.1953125 24.90234375 C-57.71552948 24.42680557 -57.23574646 23.9512674 -56.74142456 23.46131897 C-55.20953152 21.94617397 -53.66754964 20.4417867 -52.125 18.9375 C-51.09436468 17.92192108 -50.06440891 16.90565205 -49.03515625 15.88867188 C-47.14232331 14.0203048 -45.24496418 12.15701357 -43.34423828 10.29663086 C-41.08313186 8.15822503 -41.08313186 8.15822503 -39.56225586 6.27636719 C-37.21026077 4.35478095 -34.90226809 4.13922319 -31.93359375 3.61328125 C-30.72509766 3.39736328 -29.51660156 3.18144531 -28.27148438 2.95898438 C-27.00626953 2.74564453 -25.74105469 2.53230469 -24.4375 2.3125 C-23.19935547 2.08755859 -21.96121094 1.86261719 -20.68554688 1.63085938 C-13.72166709 0.41798672 -7.06926818 -0.34211107 0 0 Z " fill="#C92E33" transform="translate(70,77)"/>
<path d="M0 0 C3.75094277 1.09109193 7.28231766 2.40748157 10.9140625 3.84765625 C10.06598559 8.4157069 7.53017718 10.21090596 3.9140625 12.84765625 C3.1921875 13.38132813 2.4703125 13.915 1.7265625 14.46484375 C-2.49198098 17.44347749 -5.77212884 19.57515324 -11.0859375 19.84765625 C-11.0859375 20.50765625 -11.0859375 21.16765625 -11.0859375 21.84765625 C-18.00395354 24.78257215 -24.59181098 25.68274705 -32.0859375 24.84765625 C-34.44140625 23.828125 -34.44140625 23.828125 -36.0859375 22.84765625 C-33.51050658 20.0438232 -30.79912325 18.71342442 -27.37890625 17.0625 C-21.85299866 14.1348045 -16.85352161 10.26931165 -11.9921875 6.359375 C-11.4672168 5.94260498 -10.94224609 5.52583496 -10.40136719 5.09643555 C-8.90472371 3.90252859 -7.42456598 2.68804289 -5.9453125 1.47265625 C-3.0859375 -0.15234375 -3.0859375 -0.15234375 0 0 Z " fill="#447586" transform="translate(118.0859375,117.15234375)"/>
<path d="M0 0 C0 1.32 0 2.64 0 4 C-1.37109375 5.31640625 -1.37109375 5.31640625 -3.4375 6.5625 C-4.24703125 7.0678125 -5.0565625 7.573125 -5.890625 8.09375 C-6.91671875 8.7228125 -7.9428125 9.351875 -9 10 C-11.14569004 11.35914677 -13.28435903 12.72864579 -15.42016602 14.10327148 C-16.90432783 15.05845994 -18.39168993 16.00869842 -19.88256836 16.95336914 C-25.00479357 20.23250953 -29.68508924 23.68508924 -34 28 C-35.32 24.37 -36.64 20.74 -38 17 C-9.90863285 -0.40443399 -9.90863285 -0.40443399 0 0 Z " fill="#EB6862" transform="translate(173,8)"/>
<path d="M0 0 C-0.03125 2.25390625 -0.03125 2.25390625 -1 5 C-3.52124933 6.55777191 -5.81155047 7.75629375 -8.5 8.9375 C-9.96319448 9.61887206 -11.42415403 10.30506449 -12.8828125 10.99609375 C-13.94483887 11.49858643 -13.94483887 11.49858643 -15.02832031 12.01123047 C-18.37074314 13.68740833 -21.37917836 15.77716422 -24.3984375 17.96875 C-26 19 -26 19 -28 19 C-28.3125 16.25 -28.3125 16.25 -28 13 C-23.73001174 8.76537397 -18.19960719 6.34216428 -12.875 3.6875 C-11.96878906 3.22021484 -11.06257813 2.75292969 -10.12890625 2.27148438 C-9.25878906 1.83513672 -8.38867188 1.39878906 -7.4921875 0.94921875 C-6.70183105 0.55049561 -5.91147461 0.15177246 -5.09716797 -0.2590332 C-3 -1 -3 -1 0 0 Z " fill="#D9462B" transform="translate(163,6)"/>
<path d="M0 0 C0.33 0.99 0.66 1.98 1 3 C3.64 3 6.28 3 9 3 C8.67 3.66 8.34 4.32 8 5 C8.99 5.33 9.98 5.66 11 6 C9.43646684 9.83776322 7.16528569 12.34999338 4 15 C-0.80797427 16.16950725 -4.89672721 13.28072731 -9 11 C-8.34 10.67 -7.68 10.34 -7 10 C-6.5978125 9.1646875 -6.5978125 9.1646875 -6.1875 8.3125 C-4.54972654 5.12315169 -2.34249974 2.71236812 0 0 Z " fill="#868585" transform="translate(75,135)"/>
<path d="M0 0 C0.72750788 1.40691607 1.43140353 2.82606022 2.125 4.25 C2.51945312 5.03890625 2.91390625 5.8278125 3.3203125 6.640625 C4 9 4 9 3.34375 11.09375 C1.87398454 13.17876612 0.3506748 14.6401909 -1.625 16.25 C-2.25664063 16.77078125 -2.88828125 17.2915625 -3.5390625 17.828125 C-4.02117188 18.21484375 -4.50328125 18.6015625 -5 19 C-7.60694755 13.8903828 -8.70187527 10.74382905 -7 5 C-2.85106383 0 -2.85106383 0 0 0 Z " fill="#888584" transform="translate(58,114)"/>
<path d="M0 0 C5.03860558 0.49157128 9.33290441 2.1492552 14 4 C13.24432948 7.78630702 11.87402727 9.4041044 9 12 C3.80355921 10.40109514 -1.06612142 8.25861997 -6 6 C-4 4 -2 2 0 0 Z " fill="#415560" transform="translate(115,117)"/>
<path d="M0 0 C2.125 0.375 2.125 0.375 4 1 C4.33722141 5.21526759 4.21887045 7.57789269 2.25 11.375 C0 14 0 14 -2.1875 14.9375 C-2.785625 14.958125 -3.38375 14.97875 -4 15 C-5 14 -5 14 -5.25 10.75 C-4.92400886 5.86013291 -3.40942366 3.40942366 0 0 Z " fill="#B0DDEB" transform="translate(68,91)"/>
<path d="M0 0 C-0.33 1.32 -0.66 2.64 -1 4 C-1.99 4 -2.98 4 -4 4 C-3.67 3.34 -3.34 2.68 -3 2 C-4.98 2 -6.96 2 -9 2 C-9 1.67 -9 1.34 -9 1 C-5.846632 0.29925156 -3.27275026 0 0 0 Z " fill="#BD9AA0" transform="translate(73,75)"/>
<path d="M0 0 C-1.75 2.0625 -1.75 2.0625 -4 4 C-6.25 3.75 -6.25 3.75 -8 3 C-5.53387212 -0.1151089 -3.89156016 -0.31553191 0 0 Z " fill="#97B6C4" transform="translate(120,54)"/>
</svg>
