<?xml version="1.0" encoding="UTF-8"?>
<svg version="1.1" xmlns="http://www.w3.org/2000/svg" width="204" height="192">
<path d="M0 0 C5.49312538 10.26975614 2.22291633 22.21379408 -0.86108398 32.72070312 C-4.25096129 43.52624136 -9.15081719 53.35208983 -15.5625 62.6875 C-16.08070313 63.45191406 -16.59890625 64.21632813 -17.1328125 65.00390625 C-22.0358013 72.08736997 -27.19344738 78.95320194 -32.5625 85.6875 C-33.18922607 86.47519775 -33.18922607 86.47519775 -33.82861328 87.27880859 C-43.10849912 98.80814733 -53.74870212 109.06805123 -64.27929688 119.43603516 C-65.03275391 120.17901855 -65.78621094 120.92200195 -66.5625 121.6875 C-67.29267334 122.27329834 -68.02284668 122.85909668 -68.77514648 123.46264648 C-71.35709105 126.67658732 -71.53389045 130.02434763 -71.94140625 133.99609375 C-72.03961166 134.79982925 -72.13781708 135.60356476 -72.23899841 136.43165588 C-72.55066361 138.99447996 -72.8397409 141.55911248 -73.125 144.125 C-73.41571245 146.68697869 -73.71157647 149.2479292 -74.02171326 151.80763245 C-74.21389248 153.39783518 -74.39482921 154.98944905 -74.56288147 156.5823822 C-75.39446911 163.53866506 -78.04494371 167.34140402 -82.6875 172.375 C-83.86699219 173.66277344 -83.86699219 173.66277344 -85.0703125 174.9765625 C-85.89273438 175.87117187 -86.71515625 176.76578125 -87.5625 177.6875 C-89.23116362 179.53986971 -90.89791657 181.39396288 -92.5625 183.25 C-96.43942308 187.56442308 -96.43942308 187.56442308 -97.5625 188.6875 C-99.41537502 188.75976502 -101.27083878 188.7713122 -103.125 188.75 C-104.13691406 188.74097656 -105.14882812 188.73195312 -106.19140625 188.72265625 C-107.36509766 188.70525391 -107.36509766 188.70525391 -108.5625 188.6875 C-109.85923602 186.14830994 -111.14997837 183.60635762 -112.4375 181.0625 C-112.80230469 180.34964844 -113.16710937 179.63679687 -113.54296875 178.90234375 C-119.4287689 167.237758 -119.4287689 167.237758 -117.5625 159.6875 C-116.04227362 155.95590394 -114.29255005 152.35729123 -112.5 148.75 C-112.02755859 147.77998047 -111.55511719 146.80996094 -111.06835938 145.81054688 C-109.90829854 143.43183627 -108.73954645 141.05783901 -107.5625 138.6875 C-108.2225 138.6875 -108.8825 138.6875 -109.5625 138.6875 C-109.81 139.265 -110.0575 139.8425 -110.3125 140.4375 C-111.74549988 143.01689979 -113.34674676 144.74871592 -115.5625 146.6875 C-116.2225 146.6875 -116.8825 146.6875 -117.5625 146.6875 C-117.60375 147.821875 -117.645 148.95625 -117.6875 150.125 C-118.84671811 158.90414518 -125.40591165 165.10595676 -131.828125 170.671875 C-138.439867 175.54567339 -146.01536433 178.84687807 -154.25 178.75 C-155.24386719 178.74097656 -156.23773438 178.73195312 -157.26171875 178.72265625 C-158.40060547 178.70525391 -158.40060547 178.70525391 -159.5625 178.6875 C-159.5625 177.6975 -159.5625 176.7075 -159.5625 175.6875 C-160.54089844 175.84347656 -161.51929688 175.99945313 -162.52734375 176.16015625 C-169.73669166 177.25089316 -176.31038178 177.95980144 -183.5625 176.6875 C-184.3125 175.0625 -184.3125 175.0625 -184.5625 172.6875 C-183.63384944 171.31046209 -182.69637895 169.93858405 -181.71630859 168.59765625 C-179.25401569 164.52127461 -178.24138619 159.71927723 -176.875 155.1875 C-172.75001994 142.22760169 -167.45389871 129.43124944 -155.5625 121.6875 C-153.0893592 120.42977521 -150.62508017 119.2637621 -148.0546875 118.21875 C-144.47515548 116.01941371 -142.14824803 112.9581338 -139.5625 109.6875 C-142.58558827 111.09938933 -145.60553358 112.51788351 -148.625 113.9375 C-149.47255859 114.33324219 -150.32011719 114.72898437 -151.19335938 115.13671875 C-152.02802734 115.52988281 -152.86269531 115.92304687 -153.72265625 116.328125 C-154.54910645 116.71677734 -155.37555664 117.10542969 -156.22705078 117.50585938 C-158.36619239 118.58817648 -160.30617273 119.79757703 -162.30859375 121.109375 C-165.5625 122.6875 -165.5625 122.6875 -168.48828125 122.1640625 C-169.50277344 121.67679687 -170.51726562 121.18953125 -171.5625 120.6875 C-172.19591309 120.42291992 -172.82932617 120.15833984 -173.48193359 119.88574219 C-175.60027597 118.99946106 -177.6719888 118.03926103 -179.75 117.0625 C-180.46091797 116.75699219 -181.17183594 116.45148438 -181.90429688 116.13671875 C-185.97988602 114.19669231 -187.93205801 112.71738181 -189.55078125 108.4140625 C-189.88464844 107.18429688 -190.21851563 105.95453125 -190.5625 104.6875 C-177.14558367 87.22343341 -165.73912102 77.05167662 -143.4375 74.125 C-126.77394986 72.37721597 -126.77394986 72.37721597 -113.8125 62.5 C-112.14282404 60.31707178 -110.57132965 58.10969993 -109.05712891 55.81640625 C-106.60097953 52.31793801 -103.57399579 49.45127879 -100.5 46.5 C-99.45042877 45.4610305 -98.40094417 44.42197346 -97.3515625 43.3828125 C-88.35380435 34.6875 -88.35380435 34.6875 -85.5625 34.6875 C-85.5625 34.0275 -85.5625 33.3675 -85.5625 32.6875 C-84.17651367 31.37817383 -84.17651367 31.37817383 -82.23046875 29.89453125 C-81.51947021 29.34990234 -80.80847168 28.80527344 -80.07592773 28.24414062 C-79.30837158 27.66857422 -78.54081543 27.09300781 -77.75 26.5 C-76.97406494 25.91283203 -76.19812988 25.32566406 -75.39868164 24.72070312 C-69.63287914 20.39680016 -63.7339295 16.41083605 -57.5625 12.6875 C-56.9852417 12.30811279 -56.4079834 11.92872559 -55.81323242 11.5378418 C-50.75169576 8.24516574 -45.58125921 5.78506463 -40 3.5 C-39.18853516 3.15775391 -38.37707031 2.81550781 -37.54101562 2.46289062 C-27.68246414 -1.63489308 -9.17038555 -8.27571379 0 0 Z " fill="#6A96A4" transform="translate(195.5625,3.3125)"/>
<path d="M0 0 C5.49312538 10.26975614 2.22291633 22.21379408 -0.86108398 32.72070312 C-4.25096129 43.52624136 -9.15081719 53.35208983 -15.5625 62.6875 C-16.08070313 63.45191406 -16.59890625 64.21632813 -17.1328125 65.00390625 C-22.0358013 72.08736997 -27.19344738 78.95320194 -32.5625 85.6875 C-33.18922607 86.47519775 -33.18922607 86.47519775 -33.82861328 87.27880859 C-43.10849912 98.80814733 -53.74870212 109.06805123 -64.27929688 119.43603516 C-65.03275391 120.17901855 -65.78621094 120.92200195 -66.5625 121.6875 C-67.29267334 122.27329834 -68.02284668 122.85909668 -68.77514648 123.46264648 C-71.35709105 126.67658732 -71.53389045 130.02434763 -71.94140625 133.99609375 C-72.03961166 134.79982925 -72.13781708 135.60356476 -72.23899841 136.43165588 C-72.55066361 138.99447996 -72.8397409 141.55911248 -73.125 144.125 C-73.41571245 146.68697869 -73.71157647 149.2479292 -74.02171326 151.80763245 C-74.21389248 153.39783518 -74.39482921 154.98944905 -74.56288147 156.5823822 C-75.39446911 163.53866506 -78.04494371 167.34140402 -82.6875 172.375 C-83.86699219 173.66277344 -83.86699219 173.66277344 -85.0703125 174.9765625 C-85.89273438 175.87117187 -86.71515625 176.76578125 -87.5625 177.6875 C-89.23116362 179.53986971 -90.89791657 181.39396288 -92.5625 183.25 C-96.43942308 187.56442308 -96.43942308 187.56442308 -97.5625 188.6875 C-99.41537502 188.75976502 -101.27083878 188.7713122 -103.125 188.75 C-104.13691406 188.74097656 -105.14882812 188.73195312 -106.19140625 188.72265625 C-107.36509766 188.70525391 -107.36509766 188.70525391 -108.5625 188.6875 C-109.85923602 186.14830994 -111.14997837 183.60635762 -112.4375 181.0625 C-112.80230469 180.34964844 -113.16710937 179.63679687 -113.54296875 178.90234375 C-119.4287689 167.237758 -119.4287689 167.237758 -117.5625 159.6875 C-116.04227362 155.95590394 -114.29255005 152.35729123 -112.5 148.75 C-112.02755859 147.77998047 -111.55511719 146.80996094 -111.06835938 145.81054688 C-109.90829854 143.43183627 -108.73954645 141.05783901 -107.5625 138.6875 C-108.2225 138.6875 -108.8825 138.6875 -109.5625 138.6875 C-109.81 139.265 -110.0575 139.8425 -110.3125 140.4375 C-111.82716783 143.1639021 -113.02654752 144.83694008 -115.5625 146.6875 C-119.51440417 146.53837154 -122.37397077 145.7697673 -126 144.1875 C-129.40631773 143.33009359 -129.40631773 143.33009359 -131.4296875 144.80078125 C-133.57589979 146.67548476 -135.56179412 148.65821261 -137.5625 150.6875 C-139.32385133 152.30207205 -141.0948667 153.90615972 -142.875 155.5 C-143.69613281 156.24894531 -144.51726562 156.99789062 -145.36328125 157.76953125 C-147.77905967 159.87636465 -149.70194467 161.50143398 -152.875 162.1875 C-156.3923183 161.5331152 -157.95625258 159.97607518 -160.5234375 157.5859375 C-161.5625 155.6875 -161.5625 155.6875 -161.578125 152.90625 C-160.2286878 148.62957209 -157.93046681 146.08074419 -154.9375 142.8125 C-154.12369873 141.89766846 -154.12369873 141.89766846 -153.29345703 140.96435547 C-152.21569845 139.7535244 -151.13360356 138.54653695 -150.046875 137.34375 C-147.58829576 134.60049316 -145.23802227 131.76436479 -142.8671875 128.9453125 C-141.5625 127.6875 -141.5625 127.6875 -139.5625 127.6875 C-139.33949219 127.11773437 -139.11648437 126.54796875 -138.88671875 125.9609375 C-137.16832235 123.01077023 -135.05509955 121.41961275 -132.375 119.3125 C-129.14496672 116.74697877 -125.9508606 114.18583841 -122.875 111.4375 C-118.39788214 107.60303064 -114.1086662 103.96526359 -108.125 103.3125 C-105.5625 103.6875 -105.5625 103.6875 -104.5625 104.6875 C-103.52097917 111.68056846 -106.55444535 116.11639136 -110.5625 121.6875 C-112.35419928 123.81676581 -114.19939658 125.87690953 -116.08203125 127.92578125 C-117.84122819 130.01917919 -118.8229566 132.05801235 -119.5625 134.6875 C-113.46153144 135.08887951 -109.73988387 134.31665669 -104.5625 130.9375 C-103.93384033 130.54570557 -103.30518066 130.15391113 -102.6574707 129.75024414 C-96.75922875 125.99417507 -91.17655886 121.79848665 -85.66601562 117.49902344 C-80.75734801 113.6875 -80.75734801 113.6875 -78.5625 113.6875 C-78.0675 112.2025 -78.0675 112.2025 -77.5625 110.6875 C-76.2421875 109.390625 -76.2421875 109.390625 -74.4375 107.9375 C-57.96097292 94.03712484 -57.96097292 94.03712484 -45.5625 76.6875 C-44.9025 76.6875 -44.2425 76.6875 -43.5625 76.6875 C-43.33691406 76.17316406 -43.11132812 75.65882812 -42.87890625 75.12890625 C-40.6864611 71.06279878 -37.84127745 67.44785813 -35.10742188 63.73242188 C-33.16969654 61.06627116 -31.61167961 58.83503882 -30.5625 55.6875 C-31.26375 55.44 -31.965 55.1925 -32.6875 54.9375 C-44.25339163 49.90885147 -53.84021846 39.19585284 -58.875 27.75 C-61.78810713 19.67163568 -61.78810713 19.67163568 -60.5625 14.6875 C-49.75627582 4.04571837 -13.09987639 -11.82183967 0 0 Z " fill="#497989" transform="translate(195.5625,3.3125)"/>
<path d="M0 0 C0.14695312 0.94359375 0.14695312 0.94359375 0.296875 1.90625 C2.66588855 15.46681034 10.52578625 26.17557083 21 35 C23.91187061 36.86867709 26.88371986 38.49956882 30 40 C29.40611498 42.94135492 28.55674266 44.93321571 26.78515625 47.34765625 C26.34623047 47.95287109 25.90730469 48.55808594 25.45507812 49.18164062 C24.76575195 50.11266602 24.76575195 50.11266602 24.0625 51.0625 C23.15727495 52.30318327 22.25231743 53.54406177 21.34765625 54.78515625 C20.57292969 55.84605469 19.79820312 56.90695313 19 58 C18.34 58.99 17.68 59.98 17 61 C16.34 61 15.68 61 15 61 C14.81050781 61.6703125 14.62101562 62.340625 14.42578125 63.03125 C12.40550276 67.23785727 9.4105688 70.16543131 6.1875 73.5 C5.52331055 74.19689941 4.85912109 74.89379883 4.17480469 75.61181641 C-0.25628837 80.2420242 -4.73487016 84.82673278 -9.25 89.375 C-9.7860083 89.91576172 -10.3220166 90.45652344 -10.87426758 91.01367188 C-16.88673265 97 -16.88673265 97 -21 97 C-21 96.34 -21 95.68 -21 95 C-21.99 95 -22.98 95 -24 95 C-24 94.34 -24 93.68 -24 93 C-25.07894531 92.64228516 -25.07894531 92.64228516 -26.1796875 92.27734375 C-29.42972343 90.80537457 -31.51846422 88.98968699 -34.125 86.5625 C-34.97320312 85.78003906 -35.82140625 84.99757813 -36.6953125 84.19140625 C-37.45585938 83.46824219 -38.21640625 82.74507813 -39 82 C-39.49733643 81.53368164 -39.99467285 81.06736328 -40.50708008 80.58691406 C-43.10442089 77.82604484 -44.73033886 74.48419452 -46.5625 71.1875 C-46.96146484 70.48818359 -47.36042969 69.78886719 -47.77148438 69.06835938 C-50.73938968 63.77171368 -53 59.19714076 -53 53 C-53.66 53 -54.32 53 -55 53 C-55.33 52.34 -55.66 51.68 -56 51 C-56.99 51 -57.98 51 -59 51 C-53.06764152 44.38965769 -47.02101858 37.91630766 -40.75 31.625 C-39.90187744 30.77010986 -39.90187744 30.77010986 -39.03662109 29.89794922 C-28.10046697 19 -28.10046697 19 -25 19 C-25 18.34 -25 17.68 -25 17 C-23.55053711 15.64306641 -23.55053711 15.64306641 -21.52734375 14.1015625 C-20.79193359 13.53953125 -20.05652344 12.9775 -19.29882812 12.3984375 C-18.51958984 11.81320313 -17.74035156 11.22796875 -16.9375 10.625 C-15.80924805 9.75875 -15.80924805 9.75875 -14.65820312 8.875 C-2.95657641 0 -2.95657641 0 0 0 Z " fill="#8DAFBF" transform="translate(135,19)"/>
<path d="M0 0 C5.49136331 10.26646184 2.22683615 22.2130376 -0.86108398 32.71630859 C-7.71851008 54.54739048 -7.71851008 54.54739048 -15.5625 60.6875 C-21.11919527 60.59640663 -25.6324825 59.25394944 -30.5625 56.6875 C-31.31273437 56.30980469 -32.06296875 55.93210938 -32.8359375 55.54296875 C-45.70893878 48.49733556 -56.25941252 36.79452907 -60.5625 22.6875 C-61.55728235 19.27330874 -61.46976468 18.37704304 -60.5625 14.6875 C-49.75627582 4.04571837 -13.09987639 -11.82183967 0 0 Z " fill="#D63F24" transform="translate(195.5625,3.3125)"/>
<path d="M0 0 C1.4436468 2.8872936 1.5678268 5.81272269 2 9 C2.25523438 9.81726563 2.51046875 10.63453125 2.7734375 11.4765625 C3 14 3 14 1.4453125 16.03515625 C0.67960937 16.70417969 -0.08609375 17.37320313 -0.875 18.0625 C-4.63385885 21.59086279 -7.97821608 25.18105627 -11.125 29.25 C-11.89070313 30.22453125 -12.65640625 31.1990625 -13.4453125 32.203125 C-15.24927948 34.86354543 -15.24927948 34.86354543 -14.8515625 37.71484375 C-13.74769782 40.67704943 -12.52742514 42.10443114 -10 44 C-7.68227439 44.57599846 -7.68227439 44.57599846 -5 44 C-2.65043536 42.33960222 -0.61816683 40.72671341 1.5 38.8125 C2.05558594 38.32974609 2.61117187 37.84699219 3.18359375 37.34960938 C5.77967001 35.07422489 8.21655464 32.77137831 10.59375 30.26171875 C13.09217303 27.91336333 14.66370931 26.75519138 18 26 C20.67578125 26.6796875 20.67578125 26.6796875 23.3125 27.875 C24.63701172 28.45894531 24.63701172 28.45894531 25.98828125 29.0546875 C26.65214844 29.36664063 27.31601563 29.67859375 28 30 C27.65312998 39.53892568 23.05753468 45.27347784 16.3125 51.75 C9.25711624 57.86466593 0.73837544 62.17339265 -8.6875 62.0625 C-9.68136719 62.05347656 -10.67523438 62.04445312 -11.69921875 62.03515625 C-12.83810547 62.01775391 -12.83810547 62.01775391 -14 62 C-14 61.01 -14 60.02 -14 59 C-14.97839844 59.15597656 -15.95679687 59.31195313 -16.96484375 59.47265625 C-24.17419166 60.56339316 -30.74788178 61.27230144 -38 60 C-38.75 58.375 -38.75 58.375 -39 56 C-38.07134944 54.62296209 -37.13387895 53.25108405 -36.15380859 51.91015625 C-33.69151569 47.83377461 -32.67888619 43.03177723 -31.3125 38.5 C-26.79745839 24.31460292 -20.84313728 11.06717868 -7.27734375 3.4765625 C-4.87492986 2.25339256 -2.46292367 1.09519352 0 0 Z " fill="#F4D85B" transform="translate(50,120)"/>
<path d="M0 0 C-1.18416684 3.21028718 -2.24225463 5.31238097 -4.375 8.0625 C-9.37278286 14.84415225 -11.3051486 23.46233683 -11.921875 31.74609375 C-13.75042122 35.56881539 -17.39118337 37.00091741 -21 39 C-22.15822266 39.67542847 -22.15822266 39.67542847 -23.33984375 40.36450195 C-25.74929811 41.75925463 -28.182381 43.1018139 -30.625 44.4375 C-31.44484375 44.90865234 -32.2646875 45.37980469 -33.109375 45.86523438 C-39.13873975 49.13679483 -39.13873975 49.13679483 -43.07421875 48.51171875 C-44.03972656 48.01285156 -45.00523438 47.51398438 -46 47 C-47.32548536 46.44212381 -48.65241618 45.88767443 -49.98046875 45.3359375 C-51.38495368 44.68690518 -52.78727421 44.03317065 -54.1875 43.375 C-54.89841797 43.06949219 -55.60933594 42.76398438 -56.34179688 42.44921875 C-60.41738602 40.50919231 -62.36955801 39.02988181 -63.98828125 34.7265625 C-64.32214844 33.49679688 -64.65601562 32.26703125 -65 31 C-51.27729798 14.83078709 -40.33667184 2.12531138 -18.1640625 0.1796875 C-12.1126214 -0.0770403 -6.05567398 -0.08540574 0 0 Z " fill="#A02423" transform="translate(70,77)"/>
<path d="M0 0 C-0.09414185 1.17272461 -0.09414185 1.17272461 -0.19018555 2.36914062 C-0.64584926 8.1514745 -1.05035383 13.92521567 -1.33203125 19.71875 C-2.68779961 41.25328728 -2.68779961 41.25328728 -11.36987305 49.16333008 C-12.89604684 50.46269974 -14.44743947 51.73227615 -16 53 C-17.40992838 54.53105624 -18.79144354 56.08948297 -20.125 57.6875 C-24.67721245 62.9757667 -24.67721245 62.9757667 -27.6015625 63.1953125 C-29.09816406 63.16050781 -29.09816406 63.16050781 -30.625 63.125 C-31.62789062 63.10695312 -32.63078125 63.08890625 -33.6640625 63.0703125 C-34.82035156 63.03550781 -34.82035156 63.03550781 -36 63 C-37.29673602 60.46080994 -38.58747837 57.91885762 -39.875 55.375 C-40.23980469 54.66214844 -40.60460937 53.94929688 -40.98046875 53.21484375 C-44.34237175 46.55216325 -46.84262682 41.58403054 -45 34 C-43.64155645 30.60353606 -42.06387818 27.33767199 -40.4375 24.0625 C-40.01275391 23.18787109 -39.58800781 22.31324219 -39.15039062 21.41210938 C-38.108787 19.27038507 -37.0585578 17.13338147 -36 15 C-35.34 15 -34.68 15 -34 15 C-34 14.34 -34 13.68 -34 13 C-32.80375 12.938125 -31.6075 12.87625 -30.375 12.8125 C-22.2962508 11.93912171 -14.15753632 8.79967977 -7 5 C-7 4.34 -7 3.68 -7 3 C-1.125 0 -1.125 0 0 0 Z " fill="#A02321" transform="translate(123,129)"/>
<path d="M0 0 C0.27972656 0.68964844 0.55945313 1.37929688 0.84765625 2.08984375 C6.58684903 15.54280688 15.69723767 26.59496628 29 33 C28.37695259 37.07453229 26.23467379 39.89539701 23.9375 43.25 C23.20402344 44.32765625 22.47054687 45.4053125 21.71484375 46.515625 C21.14894531 47.33546875 20.58304687 48.1553125 20 49 C18.02 48.34 16.04 47.68 14 47 C14.0825 47.70125 14.165 48.4025 14.25 49.125 C13.8619984 53.58701845 11.64115863 56.47092049 8.3984375 59.4921875 C6.96170097 60.69741198 5.48390263 61.85334797 4 63 C3.67 62.34 3.34 61.68 3 61 C3.66 61 4.32 61 5 61 C5.2475 60.484375 5.495 59.96875 5.75 59.4375 C6.80526582 57.37973165 7.91156026 55.37972777 9.0625 53.375 C11.76126909 48.67391837 12.66760398 45.42666663 12 40 C10.31571802 34.47027906 7.54046287 31.10099215 2.78125 27.91015625 C-2.80006075 25.05830229 -8.90594939 25.59469988 -14.875 26.75 C-18.43559968 28.17423987 -18.51742659 28.71715887 -20 32 C-20.763125 32.144375 -21.52625 32.28875 -22.3125 32.4375 C-25.99970769 33.20924114 -27.45784933 35.32043578 -30 38 C-30.66 38 -31.32 38 -32 38 C-32 38.66 -32 39.32 -32 40 C-32.66 40 -33.32 40 -34 40 C-34.226875 40.53625 -34.45375 41.0725 -34.6875 41.625 C-36.78115841 45.41352474 -39.11157152 49.19067351 -43.1875 50.9375 C-45 51 -45 51 -47 50 C-47.84496662 43.24026707 -47.84496662 43.24026707 -45.69848633 40.08959961 C-45.12380615 39.47093018 -44.54912598 38.85226074 -43.95703125 38.21484375 C-43.31967041 37.52310059 -42.68230957 36.83135742 -42.02563477 36.11865234 C-41.35717529 35.41949707 -40.68871582 34.7203418 -40 34 C-39.06015259 33.0112085 -39.06015259 33.0112085 -38.10131836 32.00244141 C-36.17077375 30.00162746 -34.21718123 28.02728544 -32.25 26.0625 C-31.20066284 25.01437134 -31.20066284 25.01437134 -30.13012695 23.94506836 C-24.68492093 18.56363671 -19.03349702 13.71479857 -13 9 C-10.06719743 6.55599786 -7.13903016 4.10664655 -4.21484375 1.65234375 C-2 0 -2 0 0 0 Z " fill="#8FAFBF" transform="translate(136,26)"/>
<path d="M0 0 C1 1 1 1 1.4375 3.9375 C1.22313615 12.72641798 -6.24869413 19.6482461 -11.95019531 25.65209961 C-15.25703985 29.13451373 -18.16744288 32.7132994 -20.87890625 36.671875 C-21.24886719 37.11015625 -21.61882812 37.5484375 -22 38 C-22.66 38 -23.32 38 -24 38 C-24 38.66 -24 39.32 -24 40 C-25.3984375 41.41015625 -25.3984375 41.41015625 -27.375 43.0625 C-31.6006322 46.6478849 -35.70649502 50.34768227 -39.80078125 54.08203125 C-42.21655967 56.18886465 -44.13944467 57.81393398 -47.3125 58.5 C-50.8298183 57.8456152 -52.39375258 56.28857518 -54.9609375 53.8984375 C-56 52 -56 52 -56.015625 49.21875 C-54.6661878 44.94207209 -52.36796681 42.39324419 -49.375 39.125 C-48.83246582 38.5151123 -48.28993164 37.90522461 -47.73095703 37.27685547 C-46.65319845 36.0660244 -45.57110356 34.85903695 -44.484375 33.65625 C-42.02579576 30.91299316 -39.67552227 28.07686479 -37.3046875 25.2578125 C-36 24 -36 24 -34 24 C-33.77699219 23.43023437 -33.55398437 22.86046875 -33.32421875 22.2734375 C-31.60582235 19.32327023 -29.49259955 17.73211275 -26.8125 15.625 C-23.58246672 13.05947877 -20.3883606 10.49833841 -17.3125 7.75 C-7.05768503 -1.03283196 -7.05768503 -1.03283196 0 0 Z " fill="#9E2725" transform="translate(90,107)"/>
<path d="M0 0 C0 2.33333333 0 4.66666667 0 7 C2.31454346 17.31023907 7.19713677 28.64947667 15 36 C13.80375 36.2475 12.6075 36.495 11.375 36.75 C7.301786 37.74663747 4.41926382 39.5576687 1 42 C0.34 42 -0.32 42 -1 42 C-1.29583984 42.8353125 -1.29583984 42.8353125 -1.59765625 43.6875 C-3.56650922 46.93418791 -6.40864793 48.81525424 -9.4375 51 C-13.16323815 53.70515641 -16.29034847 56.23611106 -19 60 C-19.66 60 -20.32 60 -21 60 C-21.33 60.66 -21.66 61.32 -22 62 C-24.4146421 57.36388716 -25.53780972 54.08667467 -24.6484375 48.87890625 C-23.77716486 46.35431505 -22.0766649 44.84866577 -20.26171875 42.9453125 C-17.86986726 39.25756624 -17.54223267 34.80778971 -16.7421875 30.546875 C-15.20815095 23.21579508 -12.37575885 17.06960099 -8 11 C-6.98940479 9.33973644 -5.98546999 7.67529898 -5 6 C-7.31 6 -9.62 6 -12 6 C-12 5.67 -12 5.34 -12 5 C-11.07767578 4.83564453 -11.07767578 4.83564453 -10.13671875 4.66796875 C-8.92435547 4.43013672 -8.92435547 4.43013672 -7.6875 4.1875 C-6.48673828 3.96126953 -6.48673828 3.96126953 -5.26171875 3.73046875 C-2.76554413 2.92427764 -1.67577894 1.97947998 0 0 Z " fill="#93AFC0" transform="translate(75,71)"/>
<path d="M0 0 C0.33 0 0.66 0 1 0 C0.76629903 2.89391417 0.52694123 5.78709202 0.27734375 8.6796875 C0.10475416 10.74590086 -0.05181435 12.8135955 -0.18359375 14.8828125 C-0.27833984 16.17832031 -0.27833984 16.17832031 -0.375 17.5 C-0.42398438 18.2734375 -0.47296875 19.046875 -0.5234375 19.84375 C-1.11423682 22.51687477 -2.15401091 23.99942069 -4 26 C-4.66 26 -5.32 26 -6 26 C-6.268125 26.5775 -6.53625 27.155 -6.8125 27.75 C-8.02929189 30.05550043 -9.30333879 32.02056192 -11 34 C-11.66 34 -12.32 34 -13 34 C-13.66 35.32 -14.32 36.64 -15 38 C-15.66 38 -16.32 38 -17 38 C-17.0928125 38.804375 -17.0928125 38.804375 -17.1875 39.625 C-18.39515886 43.15507975 -20.41388959 45.35374748 -23 48 C-24.32 48 -25.64 48 -27 48 C-28.36645701 45.40163864 -29.71830669 42.79734444 -31.0625 40.1875 C-31.45244141 39.44951172 -31.84238281 38.71152344 -32.24414062 37.95117188 C-32.60830078 37.23896484 -32.97246094 36.52675781 -33.34765625 35.79296875 C-33.68804932 35.1383667 -34.02844238 34.48376465 -34.37915039 33.80932617 C-35 32 -35 32 -34 29 C-33.67 29.33 -33.34 29.66 -33 30 C-32.67 27.69 -32.34 25.38 -32 23 C-31.34 23 -30.68 23 -30 23 C-29.731875 22.13375 -29.46375 21.2675 -29.1875 20.375 C-27.98865025 16.9677428 -26.91342887 14.07048095 -25 11 C-22.00390625 9.57421875 -22.00390625 9.57421875 -18.5625 8.6875 C-17.42941406 8.38199219 -16.29632813 8.07648438 -15.12890625 7.76171875 C-13.58009766 7.38466797 -13.58009766 7.38466797 -12 7 C-11.20464844 6.80019531 -10.40929687 6.60039062 -9.58984375 6.39453125 C-9.06519531 6.26433594 -8.54054688 6.13414062 -8 6 C-8 5.34 -8 4.68 -8 4 C-4.91190305 2.23537317 -3.76687864 2 0 2 C0 1.34 0 0.68 0 0 Z " fill="#C82C31" transform="translate(114,144)"/>
<path d="M0 0 C0.66 0 1.32 0 2 0 C7.42377103 14.84976021 2.1509261 30.86591501 -4.0390625 44.765625 C-9.65598106 56.59959379 -9.65598106 56.59959379 -14 60 C-19.68441654 59.90681284 -23.91281019 58.43761178 -29 56 C-28.01 55.505 -28.01 55.505 -27 55 C-26.29325371 53.68747118 -25.63496394 52.34871903 -25 51 C-23.9699678 49.20161946 -22.92685369 47.4107051 -21.875 45.625 C-18.46947953 39.81851635 -15.12507037 33.97987372 -11.796875 28.12890625 C-10.74704289 26.30082903 -9.66195139 24.49073196 -8.49609375 22.734375 C-6.22427401 18.58222403 -4.82705869 14.16161387 -3.3125 9.6875 C-2.99216797 8.75615234 -2.67183594 7.82480469 -2.34179688 6.86523438 C-1.55610278 4.57851276 -0.7756848 2.29013219 0 0 Z " fill="#A22E2C" transform="translate(194,4)"/>
<path d="M0 0 C-0.50588181 4.09623741 -1.43044105 5.84009355 -4.5 8.5625 C-7.98406954 11.88849016 -11.10869405 15.38716224 -14.0625 19.1875 C-14.83722656 20.17105469 -15.61195312 21.15460938 -16.41015625 22.16796875 C-18.25086153 24.85514807 -18.25086153 24.85514807 -17.85546875 27.71875 C-16.74658978 30.67576059 -15.52514837 32.10613872 -13 34 C-10.68227439 34.57599846 -10.68227439 34.57599846 -8 34 C-5.65043536 32.33960222 -3.61816683 30.72671341 -1.5 28.8125 C-0.94441406 28.32974609 -0.38882813 27.84699219 0.18359375 27.34960938 C2.80288038 25.05388168 5.28834431 22.70629307 7.73046875 20.21875 C10.07796917 17.9237754 11.89579166 16.97560834 15 16 C15.99 16.99 16.98 17.98 18 19 C13.74688164 28.79444083 8.0880909 37.62214923 -2 42 C-4.9375 42.25 -4.9375 42.25 -7 42 C-7 40.68 -7 39.36 -7 38 C-14.36571071 39.18965087 -21.69481007 40.48077909 -29 42 C-28.81665226 34.1660511 -26.7542993 28.78946522 -23 22 C-22.18316996 20.29373281 -21.37062762 18.58540603 -20.5625 16.875 C-16.64465044 9.16059654 -13.2887321 3.8946215 -5.05078125 0.59375 C-3 0 -3 0 0 0 Z " fill="#FAECB1" transform="translate(53,130)"/>
<path d="M0 0 C1.60327445 3.50716286 2.66800918 6.15611665 2 10 C-0.09585025 11.99317171 -2.04074068 13.58741617 -4.375 15.25 C-5.66874214 16.21728232 -6.96039659 17.18736292 -8.25 18.16015625 C-8.889375 18.63855957 -9.52875 19.11696289 -10.1875 19.60986328 C-16.77953677 24.6657708 -22.68979287 30.55709784 -28.40625 36.56640625 C-30 38 -30 38 -32 38 C-32 38.66 -32 39.32 -32 40 C-32.66 40 -33.32 40 -34 40 C-34.226875 40.53625 -34.45375 41.0725 -34.6875 41.625 C-36.78115841 45.41352474 -39.11157152 49.19067351 -43.1875 50.9375 C-45 51 -45 51 -47 50 C-47.84496662 43.24026707 -47.84496662 43.24026707 -45.69848633 40.08959961 C-45.12380615 39.47093018 -44.54912598 38.85226074 -43.95703125 38.21484375 C-43.31967041 37.52310059 -42.68230957 36.83135742 -42.02563477 36.11865234 C-41.35717529 35.41949707 -40.68871582 34.7203418 -40 34 C-39.06015259 33.0112085 -39.06015259 33.0112085 -38.10131836 32.00244141 C-36.17077375 30.00162746 -34.21718123 28.02728544 -32.25 26.0625 C-31.20066284 25.01437134 -31.20066284 25.01437134 -30.13012695 23.94506836 C-24.68492093 18.56363671 -19.03349702 13.71479857 -13 9 C-10.06719743 6.55599786 -7.13903016 4.10664655 -4.21484375 1.65234375 C-2 0 -2 0 0 0 Z " fill="#B3DFEC" transform="translate(136,26)"/>
<path d="M0 0 C3.65249551 1.86938747 5.735327 4.60299049 8 8 C8.1953125 10.69921875 8.1953125 10.69921875 8.125 13.6875 C8.10695312 14.68136719 8.08890625 15.67523438 8.0703125 16.69921875 C8.04710937 17.45847656 8.02390625 18.21773437 8 19 C7.34 19 6.68 19 6 19 C5.6596875 20.1446875 5.6596875 20.1446875 5.3125 21.3125 C3.65202911 24.71251182 2.48838014 25.55914733 -1 27 C-5.96908411 27.64117214 -8.72520828 27.5491272 -12.875 24.6875 C-15.81917858 22.40747333 -17.81759206 20.35109139 -18.3359375 16.51171875 C-18.41928177 10.48592801 -18.21086932 6.69211153 -14 2 C-9.53938144 -0.97374571 -5.22909921 -0.74701417 0 0 Z " fill="#43555F" transform="translate(135,57)"/>
<path d="M0 0 C0.83144531 0.37253906 1.66289063 0.74507813 2.51953125 1.12890625 C3.60621094 1.60199219 4.69289062 2.07507813 5.8125 2.5625 C6.89144531 3.03816406 7.97039062 3.51382813 9.08203125 4.00390625 C12.01127243 5.33277223 12.01127243 5.33277223 15 4 C15.66 4.33 16.32 4.66 17 5 C15.35 17.87 13.7 30.74 12 44 C11.67 44 11.34 44 11 44 C11.4667941 34.651834 12.22249252 25.47182049 13.59765625 16.20703125 C13.94703928 13.42214324 14.07911717 10.80074764 14 8 C12.02 8.66 10.04 9.32 8 10 C8 10.66 8 11.32 8 12 C-0.59142606 17.34577621 -8.78179782 20.67004604 -19 20 C-19.33 20.66 -19.66 21.32 -20 22 C-20 21.34 -20 20.68 -20 20 C-20.66 20 -21.32 20 -22 20 C-22.2475 20.5775 -22.495 21.155 -22.75 21.75 C-24.26466783 24.4764021 -25.46404752 26.14944008 -28 28 C-33.2378466 27.90117271 -37.34090134 26.18692386 -42 24 C-41.34 23.67 -40.68 23.34 -40 23 C-39.32426328 21.67124039 -38.65895968 20.33715906 -38 19 C-36.99564028 17.71983165 -35.95309739 16.46871878 -34.875 15.25 C-34.33617188 14.63640625 -33.79734375 14.0228125 -33.2421875 13.390625 C-32.62730469 12.70226562 -32.62730469 12.70226562 -32 12 C-31.67 12.66 -31.34 13.32 -31 14 C-31.33 14.66 -31.66 15.32 -32 16 C-25.50181121 16.46672074 -21.9644102 15.47883911 -16.5625 11.9375 C-15.91724365 11.53281494 -15.2719873 11.12812988 -14.60717773 10.71118164 C-9.49458929 7.45527342 -4.63631299 3.90757003 0 0 Z " fill="#5F7E8B" transform="translate(108,122)"/>
<path d="M0 0 C-0.66 0.99 -1.32 1.98 -2 3 C-2.66 3 -3.32 3 -4 3 C-4.226875 3.556875 -4.45375 4.11375 -4.6875 4.6875 C-7.2190112 9.14778164 -10.50271829 11.75135914 -15 14 C-15.33 14.99 -15.66 15.98 -16 17 C-16.66 17 -17.32 17 -18 17 C-18.226875 17.556875 -18.45375 18.11375 -18.6875 18.6875 C-20.36716718 21.64691361 -22.56751852 23.62408786 -25 26 C-25.9064295 27.0954848 -26.80246459 28.19965962 -27.6875 29.3125 C-28.450625 30.199375 -29.21375 31.08625 -30 32 C-30.66 32 -31.32 32 -32 32 C-32.20625 32.556875 -32.4125 33.11375 -32.625 33.6875 C-34.51040088 36.85840149 -37.15359359 38.68729479 -40 41 C-40.66 41.99 -41.32 42.98 -42 44 C-42.66 44 -43.32 44 -44 44 C-44 44.66 -44 45.32 -44 46 C-44.66 46 -45.32 46 -46 46 C-46 46.66 -46 47.32 -46 48 C-46.66 48 -47.32 48 -48 48 C-48.66 49.32 -49.32 50.64 -50 52 C-51.32 51.67 -52.64 51.34 -54 51 C-54.80859375 48.92578125 -54.80859375 48.92578125 -55 46 C-53.44291264 43.48885911 -51.94931621 41.42305273 -50.0625 39.1875 C-49.56121582 38.57165039 -49.05993164 37.95580078 -48.54345703 37.32128906 C-45.080728 33.12451004 -41.4302246 29.17939452 -37.4609375 25.453125 C-35.88935645 24.04435456 -35.88935645 24.04435456 -35 22 C-34.34 22 -33.68 22 -33 22 C-32.77699219 21.43023437 -32.55398437 20.86046875 -32.32421875 20.2734375 C-30.60582235 17.32327023 -28.49259955 15.73211275 -25.8125 13.625 C-22.54161673 11.03217467 -19.33488868 8.43583251 -16.25 5.625 C-11.35193632 1.4166398 -6.58087795 -0.48152765 0 0 Z " fill="#C52F32" transform="translate(89,109)"/>
<path d="M0 0 C4.79821575 3.01283315 7.19740349 6.71752467 9 12 C10.02705334 17.35312651 8.8202987 21.53276559 6.20703125 26.2421875 C3.64001545 29.98056002 0.11771512 32.26272342 -4 34 C-10.48322738 34.7644847 -16.33114268 34.44577602 -22 31 C-26.35483738 26.91178532 -28.68768251 23.63970004 -29.203125 17.6328125 C-29.30247672 12.31749566 -29.14237382 8.50406914 -26 4 C-17.93697151 -3.71246203 -9.95504191 -5.25926743 0 0 Z M-21 7 C-23.86737963 11.70413527 -23.64324655 16.65549472 -23 22 C-20.79644397 25.91743295 -18.12385927 28.21924259 -14 30 C-9.08649808 30.54594466 -6.982567 30.50021593 -2.5625 28.25 C-0.06337056 26.05564244 0.76793596 25.24889654 1 22 C1.66 22 2.32 22 3 22 C3.75950403 15.1436339 3.75950403 15.1436339 1.734375 8.74609375 C-1.00269602 5.56391652 -3.0959375 3.18703351 -7.42578125 2.76171875 C-15.08432195 2.48508437 -15.08432195 2.48508437 -21 7 Z " fill="#D7DDE0" transform="translate(140,54)"/>
<path d="M0 0 C0.75166679 5.96868084 0.75166679 5.96868084 -1.13525391 8.55761719 C-2.79503715 10.10324101 -4.51232544 11.49536847 -6.3125 12.875 C-6.95550049 13.39763428 -7.59850098 13.92026855 -8.26098633 14.45874023 C-11.04649493 16.71489494 -13.87996602 18.90677476 -16.7109375 21.10546875 C-24.25388244 27.06606088 -30.87579504 33.77733885 -37.53979492 40.70141602 C-38.3310376 41.51280029 -39.12228027 42.32418457 -39.9375 43.16015625 C-40.64777344 43.89886963 -41.35804687 44.63758301 -42.08984375 45.39868164 C-44 47 -44 47 -47 47 C-47.66 47.66 -48.32 48.32 -49 49 C-53 49 -53 49 -56 47 C-52.99836152 43.97340226 -49.99326859 40.95028738 -46.98510742 37.93017578 C-45.96497546 36.90505501 -44.94574755 35.87903367 -43.92749023 34.85205078 C-32.486397 23.31547469 -32.486397 23.31547469 -27 19 C-26.34 19 -25.68 19 -25 19 C-25 18.34 -25 17.68 -25 17 C-23.55053711 15.64306641 -23.55053711 15.64306641 -21.52734375 14.1015625 C-20.79193359 13.53953125 -20.05652344 12.9775 -19.29882812 12.3984375 C-18.51958984 11.81320313 -17.74035156 11.22796875 -16.9375 10.625 C-15.80924805 9.75875 -15.80924805 9.75875 -14.65820312 8.875 C-2.95657641 0 -2.95657641 0 0 0 Z " fill="#8EB0C1" transform="translate(135,19)"/>
<path d="M0 0 C0 1.32 0 2.64 0 4 C-2.08982846 5.65050686 -4.03627463 6.9698999 -6.3125 8.3125 C-7.26394897 8.89898315 -7.26394897 8.89898315 -8.23461914 9.49731445 C-10.14947064 10.67670146 -12.07408254 11.8387999 -14 13 C-21.28190227 17.48536125 -27.92736455 21.92736455 -34 28 C-39.48684712 16.04651163 -39.48684712 16.04651163 -38 10 C-34.63848944 7.07170206 -31.07713333 4.80593744 -27 3 C-26.34 3.33 -25.68 3.66 -25 4 C-25.66 4.66 -26.32 5.32 -27 6 C-27.99 6 -28.98 6 -30 6 C-30 6.99 -30 7.98 -30 9 C-30.66 9 -31.32 9 -32 9 C-32 9.66 -32 10.32 -32 11 C-27.30513873 10.41426875 -23.61950795 8.34785343 -19.5625 6.0625 C-13.10926484 2.44428691 -7.61519202 -0.36262819 0 0 Z " fill="#EC6861" transform="translate(173,8)"/>
<path d="M0 0 C5.40931904 3.55876253 10.70460564 7.27438657 16 11 C12.18124617 15.0983543 8.12481581 18.14097517 3.4375 21.1875 C2.4484668 21.84395508 2.4484668 21.84395508 1.43945312 22.51367188 C-7.5352111 28.42161667 -7.5352111 28.42161667 -14 28 C-14.66 27.67 -15.32 27.34 -16 27 C-14.66586419 22.00823342 -12.36500818 18.55005528 -9.125 14.625 C-5.3896126 9.95609986 -2.38335976 5.52506127 0 0 Z " fill="#8DAEBE" transform="translate(92,111)"/>
<path d="M0 0 C-1.07401108 2.91517292 -1.77810176 4.77810176 -4 7 C-6.0211364 7.55947399 -8.06921614 8.02306521 -10.125 8.4375 C-11.3728125 8.6953125 -12.620625 8.953125 -13.90625 9.21875 C-16.71178839 9.76896238 -19.52197852 10.25939185 -22.34375 10.71875 C-23.05772949 10.83935791 -23.77170898 10.95996582 -24.50732422 11.08422852 C-25.8920484 11.31522873 -27.2791585 11.53245849 -28.66845703 11.73413086 C-33.04323322 12.46841699 -35.14284186 13.63982106 -38 17 C-40 17.875 -40 17.875 -42 18 C-43.33333333 17.33333333 -44.66666667 16.66666667 -46 16 C-48.09821215 16.39938767 -48.09821215 16.39938767 -50 17 C-49.10698344 15.93513145 -48.2104053 14.87324959 -47.3125 13.8125 C-46.81363281 13.22082031 -46.31476562 12.62914063 -45.80078125 12.01953125 C-44.90939453 11.01986328 -44.90939453 11.01986328 -44 10 C-43.37609375 9.154375 -42.7521875 8.30875 -42.109375 7.4375 C-37.25797254 3.63439054 -31.92305384 3.17484122 -25.9375 2.1875 C-24.77283203 1.97158203 -23.60816406 1.75566406 -22.40820312 1.53320312 C-14.87242987 0.21076938 -7.64410843 -0.27534524 0 0 Z " fill="#C6343A" transform="translate(70,77)"/>
<path d="M0 0 C1.82266634 2.24328164 3.63003287 4.48664325 5.3203125 6.83203125 C11.36459446 15.20484807 17.6257798 21.48648657 27 26 C26.37695259 30.07453229 24.23467379 32.89539701 21.9375 36.25 C21.20402344 37.32765625 20.47054687 38.4053125 19.71484375 39.515625 C19.14894531 40.33546875 18.58304688 41.1553125 18 42 C16.02 41.34 14.04 40.68 12 40 C12.12375 41.051875 12.12375 41.051875 12.25 42.125 C11.8619984 46.58701845 9.64115863 49.47092049 6.3984375 52.4921875 C4.96170097 53.69741198 3.48390263 54.85334797 2 56 C1.67 55.34 1.34 54.68 1 54 C1.66 54 2.32 54 3 54 C3.2475 53.484375 3.495 52.96875 3.75 52.4375 C4.80526582 50.37973165 5.91156026 48.37972777 7.0625 46.375 C10.59826438 40.21592657 10.71573993 34.86295974 9 28 C9.66 28 10.32 28 11 28 C11.33 27.01 11.66 26.02 12 25 C12.99 24.34 13.98 23.68 15 23 C15 22.34 15 21.68 15 21 C14.01 20.67 13.02 20.34 12 20 C12 19.34 12 18.68 12 18 C11.01 17.67 10.02 17.34 9 17 C9 16.01 9 15.02 9 14 C5.65747276 13.92572162 3.1964086 13.93453047 0 15 C0.37125 13.9275 0.7425 12.855 1.125 11.75 C2.05305195 7.77263449 2.01780287 7.25090462 0 4 C0 2.68 0 1.36 0 0 Z " fill="#91ACB9" transform="translate(138,33)"/>
<path d="M0 0 C1.4296875 2.625 1.4296875 2.625 2.875 6 C5.31039552 11.52225935 7.95776056 16.79050149 11 22 C9.68 22 8.36 22 7 22 C7 22.66 7 23.32 7 24 C5.02 24.33 3.04 24.66 1 25 C1 24.01 1 23.02 1 22 C0.1028125 22.4640625 0.1028125 22.4640625 -0.8125 22.9375 C-3 24 -3 24 -6 25 C-6.66 24.34 -7.32 23.68 -8 23 C-7.505 21.989375 -7.01 20.97875 -6.5 19.9375 C-4.88407686 16.22011812 -4.75140203 13.06043343 -5 9 C-6.65 9 -8.3 9 -10 9 C-8.65947522 2.54110787 -8.65947522 2.54110787 -5.5625 0 C-3 -1 -3 -1 0 0 Z " fill="#8BAFBF" transform="translate(76,83)"/>
<path d="M0 0 C1.65 0 3.3 0 5 0 C5 1.65 5 3.3 5 5 C5.66 5 6.32 5 7 5 C6 8 6 8 3.8125 9.9375 C-0.47478422 13.97406584 -2.56049404 19.74374488 -5 25 C-5.66 25 -6.32 25 -7 25 C-7 27.97 -7 30.94 -7 34 C-9.45479315 31.94114123 -10.85176911 30.38910608 -12 27.375 C-12 18.4720566 -5.97746546 9.71628298 -2 2 C-1.34 2 -0.68 2 0 2 C0 1.34 0 0.68 0 0 Z " fill="#9E2D2D" transform="translate(89,142)"/>
<path d="M0 0 C0.33 0 0.66 0 1 0 C1.6630368 5.90773242 1.6630368 5.90773242 -0.01220703 8.66748047 C-1.46131746 10.34128327 -2.97545703 11.89390227 -4.5625 13.4375 C-5.66612373 14.56696705 -6.76899091 15.69717386 -7.87109375 16.828125 C-8.40847168 17.36888672 -8.94584961 17.90964844 -9.49951172 18.46679688 C-11.45939971 20.46941591 -13.29890758 22.56287442 -15.125 24.6875 C-16.71016056 26.52896761 -18.2802791 28.2802791 -20 30 C-23.625 30.125 -23.625 30.125 -27 30 C-26.38125 29.0925 -25.7625 28.185 -25.125 27.25 C-23.06135976 24.25796798 -23.06135976 24.25796798 -22 21.875 C-20.69934762 19.43627679 -19.07155589 17.8126114 -17 16 C-16.34 16 -15.68 16 -15 16 C-14.731875 15.4225 -14.46375 14.845 -14.1875 14.25 C-12.92402995 11.85605674 -11.88686183 9.95424976 -10 8 C-6.8125 7.25 -6.8125 7.25 -4 7 C-4 6.34 -4 5.68 -4 5 C-3.34 4.67 -2.68 4.34 -2 4 C-0.86649466 1.98330173 -0.86649466 1.98330173 0 0 Z " fill="#A42221" transform="translate(118,162)"/>
<path d="M0 0 C0 0.99 0 1.98 0 3 C-0.474375 3.433125 -0.94875 3.86625 -1.4375 4.3125 C-3.62100982 6.6706906 -3.65266951 8.87402561 -4 12 C-4.66 11.67 -5.32 11.34 -6 11 C-6 10.34 -6 9.68 -6 9 C-7.49466797 9.47179687 -7.49466797 9.47179687 -9.01953125 9.953125 C-12.893859 11.05701098 -16.66310489 11.4732974 -20.6875 11.75 C-22.61142578 11.89695313 -22.61142578 11.89695313 -24.57421875 12.046875 C-27.81096805 12.00258653 -29.34402422 11.74823722 -32 10 C-31.5206753 5.68607774 -30.2542015 3.83430453 -27 1 C-26.875 3.375 -26.875 3.375 -27 6 C-27.66 6.66 -28.32 7.32 -29 8 C-26.77109005 9.11445498 -25.46944894 9.16480286 -23 9.1875 C-21.948125 9.20876953 -21.948125 9.20876953 -20.875 9.23046875 C-18.75475062 9.16512323 -18.75475062 9.16512323 -17 7 C-16.67 6.34 -16.34 5.68 -16 5 C-16.99 4.67 -17.98 4.34 -19 4 C-12.80173182 0.43599579 -7.10763106 -0.22211347 0 0 Z " fill="#F4D85A" transform="translate(43,169)"/>
<path d="M0 0 C0.33 0.66 0.66 1.32 1 2 C0.67 2.66 0.34 3.32 0 4 C5.56069582 6.25433614 11.0785651 6.59961828 17 7 C16.360625 7.12375 15.72125 7.2475 15.0625 7.375 C14.381875 7.58125 13.70125 7.7875 13 8 C12.67 8.66 12.34 9.32 12 10 C12 9.34 12 8.68 12 8 C11.34 8 10.68 8 10 8 C9.7525 8.5775 9.505 9.155 9.25 9.75 C7.73533217 12.4764021 6.53595248 14.14944008 4 16 C-1.2378466 15.90117271 -5.34090134 14.18692386 -10 12 C-9.34 11.67 -8.68 11.34 -8 11 C-7.32426328 9.67124039 -6.65895968 8.33715906 -6 7 C-4.99564028 5.71983165 -3.95309739 4.46871878 -2.875 3.25 C-2.33617188 2.63640625 -1.79734375 2.0228125 -1.2421875 1.390625 C-0.62730469 0.70226562 -0.62730469 0.70226562 0 0 Z " fill="#89847E" transform="translate(76,134)"/>
<path d="M0 0 C0 3.66666667 0 7.33333333 0 11 C-0.928125 11.556875 -1.85625 12.11375 -2.8125 12.6875 C-7.09393911 15.7936421 -7.78446448 19.0099068 -9 24 C-9.66 24 -10.32 24 -11 24 C-11.103125 24.721875 -11.20625 25.44375 -11.3125 26.1875 C-12 29 -12 29 -13.5 31.4375 C-15.18927946 34.3233524 -15.61658574 36.70263737 -16 40 C-16.66 40 -17.32 40 -18 40 C-17.44336767 27.42010933 -13.56371093 17.96583435 -6 8 C-5.67 7.34 -5.34 6.68 -5 6 C-7.31 6 -9.62 6 -12 6 C-12 5.67 -12 5.34 -12 5 C-11.38511719 4.89042969 -10.77023438 4.78085938 -10.13671875 4.66796875 C-8.92435547 4.43013672 -8.92435547 4.43013672 -7.6875 4.1875 C-6.88699219 4.03667969 -6.08648437 3.88585937 -5.26171875 3.73046875 C-2.76554413 2.92427764 -1.67577894 1.97947998 0 0 Z " fill="#A2A6B2" transform="translate(75,71)"/>
<path d="M0 0 C0.33 0.66 0.66 1.32 1 2 C0.67 2.66 0.34 3.32 0 4 C0.99 4 1.98 4 3 4 C3.375 6.1875 3.375 6.1875 3 9 C1.5979712 10.27160751 0.18265027 11.53550563 -1.328125 12.67578125 C-4.05275076 14.83383764 -5.97222579 17.17340565 -8 20 C-7.67 20.99 -7.34 21.98 -7 23 C-8.32 22.67 -9.64 22.34 -11 22 C-11.99 19.36 -12.98 16.72 -14 14 C-9.38 9.38 -4.76 4.76 0 0 Z " fill="#C52A2F" transform="translate(19,94)"/>
<path d="M0 0 C0 0.99 0 1.98 0 3 C-0.99 3.66 -1.98 4.32 -3 5 C-3.66 5.66 -4.32 6.32 -5 7 C-6.2065625 7.4640625 -6.2065625 7.4640625 -7.4375 7.9375 C-10.0132761 8.81413455 -10.0132761 8.81413455 -11.5625 10.5625 C-13.36320228 12.36320228 -14.47211363 12.77019215 -17 13 C-18.33333333 12.33333333 -19.66666667 11.66666667 -21 11 C-23.09821215 11.39938767 -23.09821215 11.39938767 -25 12 C-23.55650631 10.27872058 -22.10138172 8.57371795 -20.61328125 6.890625 C-18.84866818 4.89185258 -18.84866818 4.89185258 -17 2.0625 C-11.91160749 -1.43576985 -5.98429481 -0.36440226 0 0 Z " fill="#CC4043" transform="translate(45,82)"/>
<path d="M0 0 C2.55859375 1.11328125 2.55859375 1.11328125 4.5625 2.6875 C5.47265625 5.23046875 5.47265625 5.23046875 5.5625 7.6875 C2.83429363 10.41570637 1.4230144 10.54711766 -2.4375 10.6875 C-6.57929394 9.33010535 -10.336149 7.788851 -13.4375 4.6875 C-9.1312121 0.21280978 -6.19759211 -2.27393667 0 0 Z " fill="#3F5764" transform="translate(122.4375,117.3125)"/>
<path d="M0 0 C2.17854707 3.2678206 3.49760034 6.38058265 5 10 C4.04882866 11.1725131 3.08882991 12.33787015 2.125 13.5 C1.59132813 14.1496875 1.05765625 14.799375 0.5078125 15.46875 C-0.23855469 16.22671875 -0.23855469 16.22671875 -1 17 C-1.66 17 -2.32 17 -3 17 C-3.33 17.66 -3.66 18.32 -4 19 C-6.91154024 13.40984273 -7.44271451 10.18306217 -6 4 C-4.12386073 1.35634921 -3.14276157 1.04758719 0 0 Z " fill="#908985" transform="translate(57,114)"/>
<path d="M0 0 C0.66 0 1.32 0 2 0 C3.60725635 3.21451269 3.05748185 6.43612536 3 10 C4.65 10 6.3 10 8 10 C7.814375 10.61875 7.62875 11.2375 7.4375 11.875 C6.76313824 14.04160178 6.76313824 14.04160178 8 16 C3.98575735 17.33808088 0.18573976 17.19932094 -4 17 C-4.99 16.34 -5.98 15.68 -7 15 C-6.34 14.34 -5.68 13.68 -5 13 C-4.835 12.154375 -4.67 11.30875 -4.5 10.4375 C-4.335 9.633125 -4.17 8.82875 -4 8 C-3.34 7.67 -2.68 7.34 -2 7 C-1.26924352 4.6859378 -0.59861742 2.35171131 0 0 Z " fill="#F5D64F" transform="translate(20,162)"/>
<path d="M0 0 C0.66 0.99 1.32 1.98 2 3 C0 6 0 6 -3 7 C-3.33 7.99 -3.66 8.98 -4 10 C-5.65 10.33 -7.3 10.66 -9 11 C-9 11.66 -9 12.32 -9 13 C-9.66 13 -10.32 13 -11 13 C-11.268125 13.5775 -11.53625 14.155 -11.8125 14.75 C-13 17 -13 17 -14.5 18.875 C-16.31672049 21.44868736 -17.1118177 23.99384452 -18 27 C-18.66 26.67 -19.32 26.34 -20 26 C-20.66 26.185625 -21.32 26.37125 -22 26.5625 C-22.66 26.706875 -23.32 26.85125 -24 27 C-24.66 26.34 -25.32 25.68 -26 25 C-22.94334933 21.91855124 -19.88336724 18.84046078 -16.8203125 15.76538086 C-15.77968613 14.71973904 -14.73996076 13.67319971 -13.70117188 12.62573242 C-12.20420968 11.11658231 -10.70399132 9.61073502 -9.203125 8.10546875 C-8.30239258 7.19949951 -7.40166016 6.29353027 -6.47363281 5.36010742 C-4.39813446 3.3798624 -2.34004409 1.64996986 0 0 Z " fill="#A5BBC7" transform="translate(105,41)"/>
<path d="M0 0 C1 1 1 1 1.375 4.0625 C0.92071416 8.83250136 -0.59316831 12.54834158 -4 16 C-5.32 16 -6.64 16 -8 16 C-8 15.01 -8 14.02 -8 13 C-10.81939117 15.20979308 -13.53058944 17.40062046 -16 20 C-16.99 19.67 -17.98 19.34 -19 19 C-18.55269531 18.62488281 -18.10539062 18.24976562 -17.64453125 17.86328125 C-13.92837439 14.71762182 -10.40090377 11.49040124 -7 8 C-5.33333333 6.33333333 -3.66666667 4.66666667 -2 3 C-4.31 3 -6.62 3 -9 3 C-6.39781775 -0.46957633 -4.16812388 -0.36244556 0 0 Z " fill="#A02C30" transform="translate(90,107)"/>
<path d="M0 0 C2.48749261 3.74564524 2.13773738 7.32692627 1.8125 11.625 C1.76512695 12.6459375 1.76512695 12.6459375 1.71679688 13.6875 C1.58203125 15.6640625 1.58203125 15.6640625 1 19 C0.01 19.66 -0.98 20.32 -2 21 C-2.33 20.01 -2.66 19.02 -3 18 C-3.77252241 19.37405173 -4.5429232 20.74929634 -5.3125 22.125 C-5.77269531 22.94613281 -6.23289063 23.76726563 -6.70703125 24.61328125 C-7.71475269 26.47345586 -8.62730012 28.38528776 -9.5 30.3125 C-11.2196489 33.39353761 -13.13415022 34.98615961 -16 37 C-14.66001753 33.44999906 -13.06934464 30.22948679 -11.1875 26.9375 C-6.44269846 18.33899379 -2.960197 9.34799053 0 0 Z " fill="#9F221F" transform="translate(194,4)"/>
<path d="M0 0 C-0.61380873 2.73336701 -1.32321659 4.51143686 -3.6328125 6.17871094 C-5.72336904 7.32749225 -7.83855082 8.3660718 -10 9.375 C-10.73734375 9.74238281 -11.4746875 10.10976563 -12.234375 10.48828125 C-14.12161803 11.4009079 -16.05855637 12.20919645 -18 13 C-18.66 12.67 -19.32 12.34 -20 12 C-20 11.34 -20 10.68 -20 10 C-19.34 10 -18.68 10 -18 10 C-18 9.01 -18 8.02 -18 7 C-16.125 5.625 -16.125 5.625 -13 4 C-12.19046875 3.55914063 -11.3809375 3.11828125 -10.546875 2.6640625 C-3.38262712 -1.12754237 -3.38262712 -1.12754237 0 0 Z " fill="#D34F39" transform="translate(161,7)"/>
<path d="M0 0 C0.5625 1.9375 0.5625 1.9375 1 4 C0.67 4.33 0.34 4.66 0 5 C0.99 5.33 1.98 5.66 3 6 C3 6.66 3 7.32 3 8 C2.01 8.495 2.01 8.495 1 9 C1.969375 9.2475 2.93875 9.495 3.9375 9.75 C7 11 7 11 7.9375 13.0625 C7.958125 13.701875 7.97875 14.34125 8 15 C7.67 15.33 7.34 15.66 7 16 C1.33124828 15.60905161 -2.88902756 14.44900763 -8 12 C-7.34 11.67 -6.68 11.34 -6 11 C-5.29325371 9.68747118 -4.63815344 8.34721283 -4 7 C-2.6903208 4.6526519 -1.3433061 2.32839725 0 0 Z " fill="#A12621" transform="translate(173,48)"/>
<path d="M0 0 C0 0.66 0 1.32 0 2 C0.99 2.33 1.98 2.66 3 3 C1.625 5.5 1.625 5.5 0 8 C-0.66 8 -1.32 8 -2 8 C-2 8.66 -2 9.32 -2 10 C-2.66 10 -3.32 10 -4 10 C-4 10.66 -4 11.32 -4 12 C-4.66 12 -5.32 12 -6 12 C-6.66 13.32 -7.32 14.64 -8 16 C-8.66 16 -9.32 16 -10 16 C-10.625 14.1875 -10.625 14.1875 -11 12 C-10.34 11.01 -9.68 10.02 -9 9 C-8.71125 8.195625 -8.4225 7.39125 -8.125 6.5625 C-6.34019118 2.49710214 -4.58664818 0 0 0 Z " fill="#C82C31" transform="translate(47,145)"/>
<path d="M0 0 C1.32 0.33 2.64 0.66 4 1 C4.33722141 5.21526759 4.21887045 7.57789269 2.25 11.375 C0 14 0 14 -2.1875 14.9375 C-2.785625 14.958125 -3.38375 14.97875 -4 15 C-5 14 -5 14 -5.125 10.625 C-5 7 -5 7 -4 4 C-3.34 4 -2.68 4 -2 4 C-1.34 2.68 -0.68 1.36 0 0 Z " fill="#B2DDEA" transform="translate(68,91)"/>
<path d="M0 0 C-3.83264663 3.11275797 -8.06488198 5.43897281 -12.375 7.8125 C-13.1175 8.24498047 -13.86 8.67746094 -14.625 9.12304688 C-20.19380514 12.16817972 -20.19380514 12.16817972 -24.5390625 11.26171875 C-25.35117187 10.84535156 -26.16328125 10.42898437 -27 10 C-24.47595253 8.54381877 -22.8239001 7.98239001 -19.875 7.6875 C-18.92625 7.460625 -17.9775 7.23375 -17 7 C-16.29788106 5.34795544 -15.63028587 3.68076231 -15 2 C-12.5 1.25 -12.5 1.25 -10 1 C-6.78548731 -0.60725635 -3.56387464 -0.05748185 0 0 Z " fill="#A23835" transform="translate(51,114)"/>
<path d="M0 0 C-1.07401108 2.91517292 -1.77810176 4.77810176 -4 7 C-7.44165321 6.64700993 -9.06872538 5.95418308 -12 4 C-14.73872955 3.54227937 -14.73872955 3.54227937 -17.6875 3.375 C-18.68136719 3.30023438 -19.67523438 3.22546875 -20.69921875 3.1484375 C-21.45847656 3.09945312 -22.21773437 3.05046875 -23 3 C-23 2.67 -23 2.34 -23 2 C-15.2441657 0.29005228 -7.93396732 -0.24923458 0 0 Z " fill="#C3454A" transform="translate(70,77)"/>
<path d="M0 0 C3.95592656 0.31396243 7.24483454 0.74827818 11 2 C10.67 3.65 10.34 5.3 10 7 C6.12315913 8.19287411 3.08378077 9 -1 9 C-0.67 7.02 -0.34 5.04 0 3 C-0.66 2.67 -1.32 2.34 -2 2 C-1.34 1.34 -0.68 0.68 0 0 Z " fill="#F7D64E" transform="translate(40,172)"/>
<path d="M0 0 C0.33 0.66 0.66 1.32 1 2 C1.66 2.33 2.32 2.66 3 3 C2.34 3 1.68 3 1 3 C0.67 3.66 0.34 4.32 0 5 C-0.99 5.66 -1.98 6.32 -3 7 C-3 8.32 -3 9.64 -3 11 C-6.96 11 -10.92 11 -15 11 C-15.33 10.34 -15.66 9.68 -16 9 C-15.18015625 8.60167969 -14.3603125 8.20335937 -13.515625 7.79296875 C-12.43796875 7.26316406 -11.3603125 6.73335937 -10.25 6.1875 C-9.18265625 5.66542969 -8.1153125 5.14335937 -7.015625 4.60546875 C-4.44766758 3.2383308 -2.25529217 1.82284537 0 0 Z " fill="#457887" transform="translate(97,130)"/>
<path d="M0 0 C2.35802496 2.90218456 4.6170701 5.84966229 6.8125 8.875 C9.85454668 12.96736971 13.30269085 16.49958897 17 20 C16.34 20.33 15.68 20.66 15 21 C14.01 20.67 13.02 20.34 12 20 C12 19.34 12 18.68 12 18 C11.01 17.67 10.02 17.34 9 17 C9 16.01 9 15.02 9 14 C5.65747276 13.92572162 3.1964086 13.93453047 0 15 C0.37125 13.9275 0.7425 12.855 1.125 11.75 C2.05305195 7.77263449 2.01780287 7.25090462 0 4 C0 2.68 0 1.36 0 0 Z " fill="#9FA6AE" transform="translate(138,33)"/>
<path d="M0 0 C2.31 0.33 4.62 0.66 7 1 C7 1.33 7 1.66 7 2 C5.205625 2.37125 5.205625 2.37125 3.375 2.75 C-0.698214 3.74663747 -3.58073618 5.5576687 -7 8 C-7.66 8 -8.32 8 -9 8 C-9.226875 8.598125 -9.45375 9.19625 -9.6875 9.8125 C-11.33811133 12.56351888 -13.1972081 13.52484637 -16 15 C-16 13.68 -16 12.36 -16 11 C-14.68 11 -13.36 11 -12 11 C-12.33 9.68 -12.66 8.36 -13 7 C-12.01 6.67 -11.02 6.34 -10 6 C-10 5.34 -10 4.68 -10 4 C-6.5980513 1.90649311 -3.94727588 1.82057837 0 2 C0 1.34 0 0.68 0 0 Z " fill="#9DA6B2" transform="translate(83,105)"/>
<path d="M0 0 C2.31 0.66 4.62 1.32 7 2 C6.34 4.31 5.68 6.62 5 9 C3.35 9 1.7 9 0 9 C0 9.66 0 10.32 0 11 C-0.99 11 -1.98 11 -3 11 C-2.44894091 7.0507432 -1.61064629 3.65079826 0 0 Z " fill="#F5D751" transform="translate(70,149)"/>
<path d="M0 0 C0.33 0 0.66 0 1 0 C1.65651228 5.91607087 1.65651228 5.91607087 -0.03125 8.70263672 C-1.45407431 10.36445105 -2.93691381 11.90705811 -4.5 13.4375 C-5.02464844 13.97826172 -5.54929687 14.51902344 -6.08984375 15.07617188 C-7.37782824 16.39928322 -8.68689444 17.70181609 -10 19 C-10.33 17.68 -10.66 16.36 -11 15 C-10.34 15 -9.68 15 -9 15 C-9.33 14.01 -9.66 13.02 -10 12 C-9.34 11.34 -8.68 10.68 -8 10 C-6.68 10 -5.36 10 -4 10 C-4 8.35 -4 6.7 -4 5 C-3.34 4.67 -2.68 4.34 -2 4 C-0.86649466 1.98330173 -0.86649466 1.98330173 0 0 Z " fill="#A75051" transform="translate(118,162)"/>
<path d="M0 0 C0.33 0.66 0.66 1.32 1 2 C0.67 2.66 0.34 3.32 0 4 C0.99 4 1.98 4 3 4 C3 5.65 3 7.3 3 9 C-1.0527516 9.98248524 -4.83861737 10.08159574 -9 10 C-8.06409496 8.8944811 -7.12620142 7.79064547 -6.1875 6.6875 C-5.66542969 6.07261719 -5.14335937 5.45773438 -4.60546875 4.82421875 C-3.12827531 3.14575321 -1.59960869 1.56117966 0 0 Z " fill="#C9393F" transform="translate(19,94)"/>
<path d="M0 0 C0.66 0.33 1.32 0.66 2 1 C0.47396296 7.05452096 -1.36748401 12.07533992 -4.87890625 17.25390625 C-6.14530607 19.0853738 -6.14530607 19.0853738 -7 21.75 C-8.34135132 24.76804047 -10.34622725 26.11442463 -13 28 C-11.66001753 24.44999906 -10.06934464 21.22948679 -8.1875 17.9375 C-4.97355194 12.14133814 -2.42944461 6.15960957 0 0 Z " fill="#A9251B" transform="translate(191,13)"/>
<path d="M0 0 C2.31 0.66 4.62 1.32 7 2 C6.64455443 8.63498399 4.86904957 12.63187218 1 18 C0.8453125 17.0409375 0.8453125 17.0409375 0.6875 16.0625 C0.460625 15.381875 0.23375 14.70125 0 14 C-0.99 13.67 -1.98 13.34 -3 13 C-2.34 12.01 -1.68 11.02 -1 10 C1.625 9.8125 1.625 9.8125 4 10 C4.2165625 8.824375 4.2165625 8.824375 4.4375 7.625 C5 5 5 5 6 3 C3.03 2.505 3.03 2.505 0 2 C0 1.34 0 0.68 0 0 Z " fill="#EFDB78" transform="translate(71,148)"/>
<path d="M0 0 C0.8353125 0.37125 0.8353125 0.37125 1.6875 0.75 C-0.63133213 5.25884026 -3.37701569 7.68906776 -7.3125 10.75 C-7.9725 10.42 -8.6325 10.09 -9.3125 9.75 C-8.40015047 6.10060187 -7.58928798 4.03407187 -4.9375 1.3125 C-2.3125 -0.25 -2.3125 -0.25 0 0 Z " fill="#A53F3F" transform="translate(105.3125,180.25)"/>
<path d="M0 0 C3.52729906 3.52729906 3.15894617 7.43011272 3.1875 12.25 C3.15772854 17.53145657 2.57682582 21.97386771 1 27 C0.67 27 0.34 27 0 27 C0 18.09 0 9.18 0 0 Z " fill="#B76A69" transform="translate(195,4)"/>
<path d="M0 0 C0.33 0 0.66 0 1 0 C1.125 2.375 1.125 2.375 1 5 C0.34 5.66 -0.32 6.32 -1 7 C1.296537 8.1482685 2.58313167 8.11561175 5.1328125 8.09765625 C5.93847656 8.09443359 6.74414062 8.09121094 7.57421875 8.08789062 C8.83685547 8.07532227 8.83685547 8.07532227 10.125 8.0625 C11.39923828 8.05573242 11.39923828 8.05573242 12.69921875 8.04882812 C14.79950909 8.03702874 16.8997633 8.01909306 19 8 C15.29868495 10.30387977 11.79431286 10.46258536 7.5 10.75 C5.53546875 10.89695313 5.53546875 10.89695313 3.53125 11.046875 C0.23792172 11.00315825 -1.30776643 10.78566512 -4 9 C-3.47181039 5.19703482 -2.56226812 2.88255163 0 0 Z " fill="#FCF5B8" transform="translate(15,170)"/>
<path d="M0 0 C1 2 1 2 1 3 C-0.18030773 6.4501303 -1.38251072 8.50148751 -4 11 C-4 11.66 -4 12.32 -4 13 C-4.66 13 -5.32 13 -6 13 C-6.66 11.68 -7.32 10.36 -8 9 C-8.99 9 -9.98 9 -11 9 C-9.68 8.34 -8.36 7.68 -7 7 C-7 6.34 -7 5.68 -7 5 C-5.46875 3.7109375 -5.46875 3.7109375 -3.5 2.375 C-2.8503125 1.92898437 -2.200625 1.48296875 -1.53125 1.0234375 C-0.77328125 0.51683594 -0.77328125 0.51683594 0 0 Z " fill="#98B4C2" transform="translate(117,31)"/>
<path d="M0 0 C0.66 0.33 1.32 0.66 2 1 C0.68 1.33 -0.64 1.66 -2 2 C-2.33 3.32 -2.66 4.64 -3 6 C-3.66 6 -4.32 6 -5 6 C-5 6.66 -5 7.32 -5 8 C-4.34 8.33 -3.68 8.66 -3 9 C-3.66 9 -4.32 9 -5 9 C-5.12375 9.61875 -5.2475 10.2375 -5.375 10.875 C-6 13 -6 13 -8 15 C-10.125 15.625 -10.125 15.625 -12 16 C-10.62364555 12.19277076 -8.87361726 9.07005662 -6.5625 5.75 C-5.96566406 4.87859375 -5.36882813 4.0071875 -4.75390625 3.109375 C-3 1 -3 1 0 0 Z " fill="#F9ED9B" transform="translate(44,133)"/>
<path d="M0 0 C0.33 0.66 0.66 1.32 1 2 C3.01669827 3.13350534 3.01669827 3.13350534 5 4 C3.12050295 7.57104439 1.82946843 9.54744301 -2 11 C-2 9.68 -2 8.36 -2 7 C-2.99 7 -3.98 7 -5 7 C-4.60196439 4.11424181 -4.20990931 3.17810487 -1.9375 1.25 C-1.298125 0.8375 -0.65875 0.425 0 0 Z " fill="#C32A2D" transform="translate(24,91)"/>
<path d="M0 0 C0 0.99 0 1.98 0 3 C-0.86625 3.37125 -0.86625 3.37125 -1.75 3.75 C-4.10601158 4.90893522 -4.10601158 4.90893522 -5.875 7 C-8.44117795 9.41522631 -10.64430921 10.02125685 -14 11 C-15.34721283 11.63815344 -16.68747118 12.29325371 -18 13 C-13.57958137 6.28751245 -7.02448465 3.4762457 0 0 Z " fill="#F1DF87" transform="translate(50,120)"/>
<path d="M0 0 C1.31625194 2.63250388 0.74813658 3.80179056 0.0625 6.625 C-0.13214844 7.44226563 -0.32679687 8.25953125 -0.52734375 9.1015625 C-0.76130859 10.04128906 -0.76130859 10.04128906 -1 11 C-1.99 11 -2.98 11 -4 11 C-3.95875 11.7425 -3.9175 12.485 -3.875 13.25 C-4.00398134 16.08758952 -4.57051222 17.58773938 -6 20 C-5.34 20.33 -4.68 20.66 -4 21 C-4.99 21 -5.98 21 -7 21 C-6.82814002 13.65689174 -5.45106693 5.45106693 0 0 Z " fill="#FCEFA0" transform="translate(31,151)"/>
<path d="M0 0 C0 4.01834331 -1.56001634 5.49105887 -3.9375 8.6875 C-4.66839844 9.68136719 -5.39929688 10.67523438 -6.15234375 11.69921875 C-6.76207031 12.45847656 -7.37179688 13.21773437 -8 14 C-8.33 14 -8.66 14 -9 14 C-9 11.03 -9 8.06 -9 5 C-6.03 3.35 -3.06 1.7 0 0 Z " fill="#708994" transform="translate(181,62)"/>
<path d="M0 0 C2.10304477 -0.1080023 4.20766909 -0.18558987 6.3125 -0.25 C8.07013672 -0.31960937 8.07013672 -0.31960937 9.86328125 -0.390625 C13 0 13 0 14.91796875 2.015625 C15.27503906 2.67046875 15.63210937 3.3253125 16 4 C12.3558226 6.4294516 10.28758728 6.16179575 6 6 C6.66 4.68 7.32 3.36 8 2 C5.36 1.67 2.72 1.34 0 1 C0 0.67 0 0.34 0 0 Z " fill="#C12D31" transform="translate(46,80)"/>
<path d="M0 0 C2.31 0 4.62 0 7 0 C7.66 1.65 8.32 3.3 9 5 C8.67 5.33 8.34 5.66 8 6 C-0.28679245 5.32075472 -0.28679245 5.32075472 -4 3 C-2.68 2.67 -1.36 2.34 0 2 C0 1.34 0 0.68 0 0 Z " fill="#952626" transform="translate(172,58)"/>
<path d="M0 0 C-0.33 3.96 -0.66 7.92 -1 12 C-1.33 12 -1.66 12 -2 12 C-2.33 10.02 -2.66 8.04 -3 6 C-4.423125 6.5259375 -4.423125 6.5259375 -5.875 7.0625 C-9 8 -9 8 -11 7 C-9.68 6.34 -8.36 5.68 -7 5 C-7 4.34 -7 3.68 -7 3 C-1.125 0 -1.125 0 0 0 Z " fill="#842627" transform="translate(123,129)"/>
<path d="M0 0 C0.25 3.3125 0.25 3.3125 0 7 C-2 8.9375 -2 8.9375 -4 10 C-5.33454536 7.8019253 -6.02787435 6.47386397 -5.875 3.875 C-4.74112995 1.44527846 -2.80211139 0 0 0 Z " fill="#8EAFC0" transform="translate(135,19)"/>
<path d="M0 0 C-6.92172114 4.30684871 -14.66671436 8.42117689 -23 8 C-22.34 7.67 -21.68 7.34 -21 7 C-21 6.34 -21 5.68 -21 5 C-19.1746875 4.7834375 -19.1746875 4.7834375 -17.3125 4.5625 C-14.17329623 4.17219047 -11.0924866 3.67648144 -8 3 C-8 2.34 -8 1.68 -8 1 C-3.375 -1.125 -3.375 -1.125 0 0 Z " fill="#65626B" transform="translate(116,134)"/>
<path d="M0 0 C0.33 0.99 0.66 1.98 1 3 C-3.75 7 -3.75 7 -6 7 C-6.2475 7.5775 -6.495 8.155 -6.75 8.75 C-8.16683317 11.3002997 -9.87627537 13.01785701 -12 15 C-12.66 14.67 -13.32 14.34 -14 14 C-12.38405168 11.95880212 -10.7143618 9.95927063 -9 8 C-8.34 8 -7.68 8 -7 8 C-6.773125 7.4225 -6.54625 6.845 -6.3125 6.25 C-4.66961977 3.4336339 -2.60466773 1.91922886 0 0 Z " fill="#B43F3F" transform="translate(63,123)"/>
<path d="M0 0 C0.33 0 0.66 0 1 0 C1.16873478 1.43725871 1.33490737 2.87481838 1.5 4.3125 C1.5928125 5.11300781 1.685625 5.91351563 1.78125 6.73828125 C2 9 2 9 2 12 C0.02 12.99 0.02 12.99 -2 14 C-4 11 -4 11 -4 8 C-3.34 8 -2.68 8 -2 8 C-2 7.34 -2 6.68 -2 6 C-1.34 6 -0.68 6 0 6 C0 4.02 0 2.04 0 0 Z " fill="#C7D1D5" transform="translate(116,67)"/>
<path d="M0 0 C0.99 0 1.98 0 3 0 C2.67 2.97 2.34 5.94 2 9 C1.34 9 0.68 9 0 9 C0 9.66 0 10.32 0 11 C-0.66 11 -1.32 11 -2 11 C-2.05399736 9.54207116 -2.09279177 8.08357288 -2.125 6.625 C-2.15980469 5.40683594 -2.15980469 5.40683594 -2.1953125 4.1640625 C-2 2 -2 2 0 0 Z " fill="#DFE2E5" transform="translate(114,64)"/>
<path d="M0 0 C0.66 0.33 1.32 0.66 2 1 C1.34 1.66 0.68 2.32 0 3 C-0.99 3 -1.98 3 -3 3 C-3 3.99 -3 4.98 -3 6 C-3.66 6 -4.32 6 -5 6 C-5 6.66 -5 7.32 -5 8 C-4.34 8 -3.68 8 -3 8 C-3.33 8.66 -3.66 9.32 -4 10 C-6.475 9.01 -6.475 9.01 -9 8 C-9.33 9.32 -9.66 10.64 -10 12 C-10.33 10.35 -10.66 8.7 -11 7 C-9.21475351 5.80286983 -7.4215972 4.61752721 -5.625 3.4375 C-4.62726563 2.77621094 -3.62953125 2.11492188 -2.6015625 1.43359375 C-1.74304688 0.96050781 -0.88453125 0.48742188 0 0 Z " fill="#DC7565" transform="translate(146,11)"/>
<path d="M0 0 C0.77321882 2.98241547 1.41196203 5.97580475 2 9 C1.195625 9.28875 0.39125 9.5775 -0.4375 9.875 C-3.1326468 10.73262568 -3.1326468 10.73262568 -4 13 C-3.50269348 8.02693484 -2.44697666 4.36200187 0 0 Z " fill="#B05958" transform="translate(82,155)"/>
<path d="M0 0 C2.475 0.99 2.475 0.99 5 2 C3.68 5.3 2.36 8.6 1 12 C0.34 10.68 -0.32 9.36 -1 8 C-0.34 8 0.32 8 1 8 C1 7.01 1 6.02 1 5 C-0.94009522 3.29467677 -0.94009522 3.29467677 -3 2 C-2.01 1.34 -1.02 0.68 0 0 Z " fill="#F8E6A7" transform="translate(66,146)"/>
<path d="M0 0 C2.64 0 5.28 0 8 0 C6.50902342 3.7952131 4.24299151 5.61042731 1 8 C1 7.01 1 6.02 1 5 C0.67 4.67 0.34 4.34 0 4 C0 2.68 0 1.36 0 0 Z " fill="#9C9C9A" transform="translate(78,142)"/>
<path d="M0 0 C0 0.66 0 1.32 0 2 C-5.07476794 3.26305335 -9.72796354 4.27036084 -15 4 C-12.83900627 1.83900627 -11.4789582 1.28436284 -8.625 0.3125 C-7.46871094 -0.09548828 -7.46871094 -0.09548828 -6.2890625 -0.51171875 C-3.79944692 -1.04278009 -2.38446982 -0.81115526 0 0 Z " fill="#8D2B2F" transform="translate(113,138)"/>
<path d="M0 0 C0.7425 0.0825 1.485 0.165 2.25 0.25 C1.92 2.23 1.59 4.21 1.25 6.25 C0.59 5.92 -0.07 5.59 -0.75 5.25 C-1.41 5.435625 -2.07 5.62125 -2.75 5.8125 C-3.41 5.956875 -4.07 6.10125 -4.75 6.25 C-5.41 5.59 -6.07 4.93 -6.75 4.25 C-3.42692308 0.31153846 -3.42692308 0.31153846 0 0 Z " fill="#9DB7C4" transform="translate(85.75,61.75)"/>
<path d="M0 0 C0 0.99 0 1.98 0 3 C-0.33 2.34 -0.66 1.68 -1 1 C-1.99 1.33 -2.98 1.66 -4 2 C-5.90112305 2.02172852 -5.90112305 2.02172852 -8.01171875 1.87890625 C-8.76904297 1.83056641 -9.52636719 1.78222656 -10.30664062 1.73242188 C-11.09232422 1.67634766 -11.87800781 1.62027344 -12.6875 1.5625 C-13.48478516 1.51029297 -14.28207031 1.45808594 -15.10351562 1.40429688 C-17.06936522 1.27480978 -19.03473665 1.13809959 -21 1 C-21 0.67 -21 0.34 -21 0 C-13.81191259 -0.88826175 -7.17757765 -1.01202288 0 0 Z " fill="#D07367" transform="translate(193,1)"/>
<path d="M0 0 C1.99097846 2.98646769 2.94124926 5.59687262 4 9 C0 9 0 9 -1.8125 7.25 C-3 5 -3 5 -2.8125 2.8125 C-2 1 -2 1 0 0 Z " fill="#82868A" transform="translate(57,114)"/>
<path d="M0 0 C1 2 1 2 0.375 4.8125 C-0.0755756 8.64239256 0.7624563 9.95694057 3 13 C1.109375 12.75390625 1.109375 12.75390625 -1 12 C-2.046875 10.15234375 -2.046875 10.15234375 -2.75 7.9375 C-2.99234375 7.20402344 -3.2346875 6.47054687 -3.484375 5.71484375 C-3.65453125 5.14894531 -3.8246875 4.58304687 -4 4 C-2.68 2.68 -1.36 1.36 0 0 Z " fill="#CA7477" transform="translate(9,104)"/>
<path d="M0 0 C0.66 0.33 1.32 0.66 2 1 C1.67 1.66 1.34 2.32 1 3 C1.66 3.33 2.32 3.66 3 4 C0.69 6.31 -1.62 8.62 -4 11 C-4.33 10.01 -4.66 9.02 -5 8 C-5.99 7.67 -6.98 7.34 -8 7 C-6.35 7 -4.7 7 -3 7 C-3 6.34 -3 5.68 -3 5 C-2.34 5 -1.68 5 -1 5 C-0.67 3.35 -0.34 1.7 0 0 Z " fill="#678992" transform="translate(133,114)"/>
<path d="M0 0 C0 1.98 0 3.96 0 6 C-2.375 7.0625 -2.375 7.0625 -5 8 C-5.66 7.67 -6.32 7.34 -7 7 C-7 6.34 -7 5.68 -7 5 C-6.34 5 -5.68 5 -5 5 C-5 4.01 -5 3.02 -5 2 C-1.125 0 -1.125 0 0 0 Z " fill="#CE3D23" transform="translate(148,12)"/>
<path d="M0 0 C0.763125 0.309375 1.52625 0.61875 2.3125 0.9375 C7.17314841 2.33802581 11.96858173 2.65979734 17 3 C16.360625 3.12375 15.72125 3.2475 15.0625 3.375 C14.381875 3.58125 13.70125 3.7875 13 4 C12.67 4.66 12.34 5.32 12 6 C12 5.34 12 4.68 12 4 C8.37 4 4.74 4 1 4 C0.67 2.68 0.34 1.36 0 0 Z " fill="#7A838B" transform="translate(76,138)"/>
<path d="M0 0 C2.4375 0.875 2.4375 0.875 5 3 C5.75964864 6.3221254 5.92981522 9.59922821 6 13 C2.91187205 8.9949489 0 5.2064354 0 0 Z " fill="#D57478" transform="translate(79,173)"/>
<path d="M0 0 C0.66 0.66 1.32 1.32 2 2 C3.32 1.34 4.64 0.68 6 0 C5.67 3.3 5.34 6.6 5 10 C1.32769295 6.92000054 0.43197635 4.7517398 0 0 Z " fill="#A53331" transform="translate(77,166)"/>
<path d="M0 0 C-0.33 0.99 -0.66 1.98 -1 3 C-3.8125 4.375 -3.8125 4.375 -7 5 C-9.375 3.625 -9.375 3.625 -11 2 C-7.12315913 0.80712589 -4.08378077 0 0 0 Z " fill="#B46B6B" transform="translate(35,121)"/>
<path d="M0 0 C1.32 0.33 2.64 0.66 4 1 C2.25 6.75 2.25 6.75 0 9 C-0.66 8.34 -1.32 7.68 -2 7 C-1.01 6.67 -0.02 6.34 1 6 C0.67 4.02 0.34 2.04 0 0 Z M-4 8 C-3.01 8.495 -3.01 8.495 -2 9 C-2.66 9.66 -3.32 10.32 -4 11 C-4 10.01 -4 9.02 -4 8 Z " fill="#A82223" transform="translate(83,158)"/>
<path d="M0 0 C0.99 0 1.98 0 3 0 C2.01 3.3 1.02 6.6 0 10 C-0.66 10 -1.32 10 -2 10 C-1.85950482 8.52031676 -1.71245174 7.04125484 -1.5625 5.5625 C-1.48128906 4.73878906 -1.40007813 3.91507812 -1.31640625 3.06640625 C-1 1 -1 1 0 0 Z " fill="#8F3135" transform="translate(59,91)"/>
<path d="M0 0 C1.21236328 0.02707031 1.21236328 0.02707031 2.44921875 0.0546875 C3.37154297 0.08949219 3.37154297 0.08949219 4.3125 0.125 C4.3125 1.445 4.3125 2.765 4.3125 4.125 C5.3025 4.455 6.2925 4.785 7.3125 5.125 C4.3425 4.63 4.3425 4.63 1.3125 4.125 C1.3125 3.135 1.3125 2.145 1.3125 1.125 C-3.1425 1.62 -3.1425 1.62 -7.6875 2.125 C-4.48369983 -0.01086678 -3.66810033 -0.10632175 0 0 Z " fill="#F5E17B" transform="translate(41.6875,167.875)"/>
<path d="M0 0 C1.45606519 4.52092968 0.27032841 7.51648796 -1 12 C-1.66 12 -2.32 12 -3 12 C-3.33 12.99 -3.66 13.98 -4 15 C-5 13 -5 13 -4.00390625 9.9609375 C-3.52824219 8.77757812 -3.05257813 7.59421875 -2.5625 6.375 C-2.08941406 5.18648437 -1.61632812 3.99796875 -1.12890625 2.7734375 C-0.75636719 1.85820312 -0.38382813 0.94296875 0 0 Z " fill="#F6E797" transform="translate(24,144)"/>
<path d="M0 0 C0.5775 0.45375 1.155 0.9075 1.75 1.375 C3.7800333 2.84113516 5.73539843 3.94857784 8 5 C5.75 6.125 5.75 6.125 3 7 C0.6875 6.125 0.6875 6.125 -1 5 C-0.67 3.35 -0.34 1.7 0 0 Z " fill="#F3DAA3" transform="translate(36,161)"/>
<path d="M0 0 C1.53445094 3.06890187 0.54984289 5.70094266 0 9 C-2.97 8.505 -2.97 8.505 -6 8 C-4.02 5.36 -2.04 2.72 0 0 Z " fill="#93797D" transform="translate(76,134)"/>
<path d="M0 0 C0.33 0 0.66 0 1 0 C1 1.65 1 3.3 1 5 C1.66 5.33 2.32 5.66 3 6 C1.68 6.99 0.36 7.98 -1 9 C-2.1875 6.75 -2.1875 6.75 -3 4 C-1.6875 1.6875 -1.6875 1.6875 0 0 Z " fill="#5B8694" transform="translate(148,97)"/>
<path d="M0 0 C1.12894876 0.93274109 2.25300876 1.87140122 3.375 2.8125 C4.00148437 3.33457031 4.62796875 3.85664062 5.2734375 4.39453125 C7 6 7 6 9 9 C7.35 8.67 5.7 8.34 4 8 C4 7.34 4 6.68 4 6 C3.01 5.67 2.02 5.34 1 5 C0.67 3.35 0.34 1.7 0 0 Z " fill="#AF9195" transform="translate(146,45)"/>
<path d="M0 0 C1 2 1 2 1 3 C0.34964186 4.34136367 -0.3162955 5.67532254 -1 7 C-2.98 7 -4.96 7 -7 7 C-7 6.34 -7 5.68 -7 5 C-5.46875 3.7109375 -5.46875 3.7109375 -3.5 2.375 C-2.8503125 1.92898437 -2.200625 1.48296875 -1.53125 1.0234375 C-1.0259375 0.68570312 -0.520625 0.34796875 0 0 Z " fill="#AAC0CB" transform="translate(117,31)"/>
<path d="M0 0 C2.31 0.33 4.62 0.66 7 1 C5.37660195 2.70884005 3.70680947 4.37446717 2 6 C1.34 6 0.68 6 0 6 C0 4.02 0 2.04 0 0 Z " fill="#CB432C" transform="translate(135,19)"/>
<path d="M0 0 C0.33 0 0.66 0 1 0 C1.125 2.375 1.125 2.375 1 5 C0.34 5.66 -0.32 6.32 -1 7 C-0.34 7.66 0.32 8.32 1 9 C-0.65 9 -2.3 9 -4 9 C-3.47181039 5.19703482 -2.56226812 2.88255163 0 0 Z " fill="#F3E28C" transform="translate(15,170)"/>
<path d="M0 0 C0 0.99 0 1.98 0 3 C-0.99 3.495 -0.99 3.495 -2 4 C-1.34 2.68 -0.68 1.36 0 0 Z M-4 4 C-3.34 4.33 -2.68 4.66 -2 5 C-6.82142857 11.29464286 -6.82142857 11.29464286 -11 12 C-10.02133662 10.85373678 -9.04205413 9.70800212 -8.0625 8.5625 C-7.51722656 7.92441406 -6.97195312 7.28632813 -6.41015625 6.62890625 C-5.63204305 5.73008851 -4.84063472 4.84063472 -4 4 Z " fill="#AC2327" transform="translate(70,128)"/>
<path d="M0 0 C1.62723299 0.45034123 3.25173664 0.91055354 4.875 1.375 C5.77992188 1.63023438 6.68484375 1.88546875 7.6171875 2.1484375 C10 3 10 3 12 5 C9.36 5 6.72 5 4 5 C4 4.34 4 3.68 4 3 C2.68 2.67 1.36 2.34 0 2 C0 1.34 0 0.68 0 0 Z " fill="#64616F" transform="translate(165,60)"/>
<path d="M0 0 C-0.33 0.99 -0.66 1.98 -1 3 C-4.0625 4.1875 -4.0625 4.1875 -7 5 C-7.33 4.01 -7.66 3.02 -8 2 C-4.77208445 -0.1519437 -3.71599191 -0.20086443 0 0 Z " fill="#4F5D69" transform="translate(129,57)"/>
<path d="M0 0 C2.475 0.495 2.475 0.495 5 1 C5 1.66 5 2.32 5 3 C5.66 3 6.32 3 7 3 C6.67 4.65 6.34 6.3 6 8 C1.125 3.375 1.125 3.375 0 0 Z " fill="#C84327" transform="translate(141,37)"/>
<path d="M0 0 C0.33 0 0.66 0 1 0 C1.1875 3.375 1.1875 3.375 1 7 C0.01 7.66 -0.98 8.32 -2 9 C-2.66 7.68 -3.32 6.36 -4 5 C-3.34 4.67 -2.68 4.34 -2 4 C-0.86649466 1.98330173 -0.86649466 1.98330173 0 0 Z " fill="#9F4242" transform="translate(118,162)"/>
<path d="M0 0 C0.66 0.33 1.32 0.66 2 1 C1.67 2.32 1.34 3.64 1 5 C-0.65 5.33 -2.3 5.66 -4 6 C-4 5.01 -4 4.02 -4 3 C-2 1.3125 -2 1.3125 0 0 Z " fill="#B8323D" transform="translate(69,118)"/>
<path d="M0 0 C4.875 1.75 4.875 1.75 6 4 C5.34 4 4.68 4 4 4 C3.67 4.66 3.34 5.32 3 6 C0.525 5.01 0.525 5.01 -2 4 C-1.34 2.68 -0.68 1.36 0 0 Z " fill="#DBE3E6" transform="translate(138,54)"/>
<path d="M0 0 C0.99 0.33 1.98 0.66 3 1 C3.33 3.31 3.66 5.62 4 8 C3.01 8.495 3.01 8.495 2 9 C0.14223235 5.86501708 -0.20140476 3.62528568 0 0 Z " fill="#C5474D" transform="translate(85,183)"/>
<path d="M0 0 C-2.62198774 2.15377564 -4.64404172 3.40072174 -8 4 C-8 3.34 -8 2.68 -8 2 C-8.66 1.67 -9.32 1.34 -10 1 C-6.78548731 -0.60725635 -3.56387464 -0.05748185 0 0 Z " fill="#AD4F4C" transform="translate(51,114)"/>
<path d="M0 0 C2.29633824 3.44450737 2.54016485 5.93812283 3 10 C2.67 8.68 2.34 7.36 2 6 C0.35 6.33 -1.3 6.66 -3 7 C-2.690625 6.401875 -2.38125 5.80375 -2.0625 5.1875 C-0.89790296 2.91043228 -0.89790296 2.91043228 0 0 Z " fill="#C3D4DA" transform="translate(135,26)"/>
<path d="M0 0 C0.33 0 0.66 0 1 0 C1.28571429 7.42857143 1.28571429 7.42857143 -1 11 C-0.34 11.33 0.32 11.66 1 12 C0.01 12 -0.98 12 -2 12 C-1.85904936 10.3745692 -1.71207913 8.74965949 -1.5625 7.125 C-1.48128906 6.22007812 -1.40007813 5.31515625 -1.31640625 4.3828125 C-1 2 -1 2 0 0 Z " fill="#FBEB90" transform="translate(26,160)"/>
<path d="M0 0 C1 3 1 3 0.0625 5.1875 C-0.4634375 6.0846875 -0.4634375 6.0846875 -1 7 C-1.66 7 -2.32 7 -3 7 C-3 7.99 -3 8.98 -3 10 C-3.99 10.33 -4.98 10.66 -6 11 C-4.54955729 6.89041233 -2.48889248 3.56741255 0 0 Z " fill="#F3E289" transform="translate(31,133)"/>
<path d="M0 0 C0.33 0.66 0.66 1.32 1 2 C0.06553465 4.03144641 -0.93224776 6.03533587 -2 8 C-2.99 8 -3.98 8 -5 8 C-5 8.66 -5 9.32 -5 10 C-5.66 9.67 -6.32 9.34 -7 9 C-4.69 6.03 -2.38 3.06 0 0 Z " fill="#A5979E" transform="translate(86,122)"/>
<path d="M0 0 C0.66 0.33 1.32 0.66 2 1 C1.01 2.485 1.01 2.485 0 4 C0.66 4.33 1.32 4.66 2 5 C-3.75 6.125 -3.75 6.125 -6 5 C-4.02 3.35 -2.04 1.7 0 0 Z " fill="#B0C6D1" transform="translate(124,25)"/>
<path d="M0 0 C0.33 0 0.66 0 1 0 C1 2.97 1 5.94 1 9 C0.01 9.33 -0.98 9.66 -2 10 C-1.46274105 6.62294375 -0.88935377 3.303314 0 0 Z " fill="#F5E389" transform="translate(18,160)"/>
<path d="M0 0 C-0.33 1.65 -0.66 3.3 -1 5 C-2.98 4.34 -4.96 3.68 -7 3 C-3.375 0 -3.375 0 0 0 Z " fill="#F4E2A5" transform="translate(53,130)"/>
<path d="M0 0 C1 2 1 2 0.375 4.0625 C-1 6 -1 6 -3.625 6.75 C-4.800625 6.87375 -4.800625 6.87375 -6 7 C-4.02 4.69 -2.04 2.38 0 0 Z " fill="#D2797A" transform="translate(19,94)"/>
<path d="M0 0 C0.66 0.33 1.32 0.66 2 1 C-3.14285714 6.57142857 -3.14285714 6.57142857 -7 7 C-4.78071806 4.09197539 -3.07030857 2.04687238 0 0 Z " fill="#D74330" transform="translate(148,27)"/>
<path d="M0 0 C0 2.31 0 4.62 0 7 C-0.66 7 -1.32 7 -2 7 C-2 5.68 -2 4.36 -2 3 C-3.32 3.33 -4.64 3.66 -6 4 C-2.17391304 0 -2.17391304 0 0 0 Z " fill="#B4AAAD" transform="translate(135,19)"/>
<path d="M0 0 C1.98 0.495 1.98 0.495 4 1 C4 2.32 4 3.64 4 5 C2.35 4.67 0.7 4.34 -1 4 C-0.67 2.68 -0.34 1.36 0 0 Z " fill="#F7D64C" transform="translate(58,168)"/>
<path d="M0 0 C0.185625 0.9590625 0.185625 0.9590625 0.375 1.9375 C0.684375 2.9584375 0.684375 2.9584375 1 4 C1.66 4.33 2.32 4.66 3 5 C2.67 5.66 2.34 6.32 2 7 C0.68 6.67 -0.64 6.34 -2 6 C-1.34 4.02 -0.68 2.04 0 0 Z " fill="#99A7B3" transform="translate(78,132)"/>
<path d="M0 0 C0.598125 0.20625 1.19625 0.4125 1.8125 0.625 C0.1625 1.945 -1.4875 3.265 -3.1875 4.625 C-3.8475 3.635 -4.5075 2.645 -5.1875 1.625 C-2.1875 -0.375 -2.1875 -0.375 0 0 Z " fill="#87ABB6" transform="translate(94.1875,130.375)"/>
<path d="M0 0 C5.75 1.75 5.75 1.75 8 4 C7.01 4.495 7.01 4.495 6 5 C3.64018187 4.06421005 1.30368736 3.06652192 -1 2 C-0.67 1.34 -0.34 0.68 0 0 Z " fill="#AD5C5F" transform="translate(13,116)"/>
<path d="M0 0 C2.31 0 4.62 0 7 0 C4.64031256 2.09749995 3.45383006 2.96905704 0.25 3.1875 C-0.86375 3.0946875 -0.86375 3.0946875 -2 3 C-1.34 2.67 -0.68 2.34 0 2 C0 1.34 0 0.68 0 0 Z " fill="#5C6979" transform="translate(95,139)"/>
<path d="M0 0 C1.32 0.33 2.64 0.66 4 1 C2.68 2.32 1.36 3.64 0 5 C-0.99 4.67 -1.98 4.34 -3 4 C-2.34 3.67 -1.68 3.34 -1 3 C-0.67 2.01 -0.34 1.02 0 0 Z " fill="#FEE2B4" transform="translate(47,135)"/>
<path d="M0 0 C0.99 0.33 1.98 0.66 3 1 C0.03 3.475 0.03 3.475 -3 6 C-3.33 4.68 -3.66 3.36 -4 2 C-2.68 2 -1.36 2 0 2 C0 1.34 0 0.68 0 0 Z " fill="#AC8A95" transform="translate(71,114)"/>
<path d="M0 0 C2 1.8125 2 1.8125 4 4 C4 4.99 4 5.98 4 7 C2.68 6.67 1.36 6.34 0 6 C0 4.02 0 2.04 0 0 Z " fill="#A39EA5" transform="translate(142,40)"/>
<path d="M0 0 C0 0.99 0 1.98 0 3 C-1.96466413 4.06775224 -3.96855359 5.06553465 -6 6 C-6.66 5.67 -7.32 5.34 -8 5 C-4.04 2.525 -4.04 2.525 0 0 Z " fill="#EF6457" transform="translate(148,17)"/>
</svg>
